<?xml version="1.0" encoding="utf-8" standalone="no"?>
<!DOCTYPE svg PUBLIC "-//W3C//DTD SVG 1.1//EN"
  "http://www.w3.org/Graphics/SVG/1.1/DTD/svg11.dtd">
<!-- Created with matplotlib (http://matplotlib.org/) -->
<svg height="576pt" version="1.1" viewBox="0 0 720 576" width="720pt" xmlns="http://www.w3.org/2000/svg" xmlns:xlink="http://www.w3.org/1999/xlink">
 <defs>
  <style type="text/css">
*{stroke-linecap:butt;stroke-linejoin:round;}
  </style>
 </defs>
 <g id="figure_1">
  <g id="patch_1">
   <path d="M 0 576 
L 720 576 
L 720 0 
L 0 0 
z
" style="fill:#ffffff;"/>
  </g>
  <g id="axes_1">
   <g id="patch_2">
    <path d="M 90 504 
L 648 504 
L 648 69.12 
L 90 69.12 
z
" style="fill:#ffffff;"/>
   </g>
   <g id="PolyCollection_1">
    <path clip-path="url(#p08837b3bbb)" d="M 146.033005 133.974177 
L 118.51245 133.974177 
L 118.163068 133.665399 
L 117.828967 133.356621 
L 117.511525 133.047843 
L 117.212052 132.739065 
L 116.931783 132.430287 
L 116.67186 132.121509 
L 116.433329 131.812731 
L 116.217128 131.503954 
L 116.024084 131.195176 
L 115.854897 130.886398 
L 115.710144 130.57762 
L 115.590268 130.268842 
L 115.495578 129.960064 
L 115.426244 129.651286 
L 115.382299 129.342509 
L 115.363636 129.033731 
L 115.370014 128.724953 
L 115.401055 128.416175 
L 115.456252 128.107397 
L 115.534976 127.798619 
L 115.636475 127.489841 
L 115.75989 127.181064 
L 115.904256 126.872286 
L 116.068515 126.563508 
L 116.251524 126.25473 
L 116.452068 125.945952 
L 116.668865 125.637174 
L 116.900583 125.328396 
L 117.145849 125.019618 
L 117.403259 124.710841 
L 117.67139 124.402063 
L 117.948813 124.093285 
L 118.234102 123.784507 
L 118.525844 123.475729 
L 118.822651 123.166951 
L 119.123167 122.858173 
L 119.426078 122.549396 
L 119.73012 122.240618 
L 120.034085 121.93184 
L 120.336829 121.623062 
L 120.637277 121.314284 
L 120.934424 121.005506 
L 121.227346 120.696728 
L 121.515195 120.38795 
L 121.797205 120.079173 
L 122.072694 119.770395 
L 122.34106 119.461617 
L 122.601783 119.152839 
L 122.854424 118.844061 
L 123.098623 118.535283 
L 123.334095 118.226505 
L 123.560627 117.917728 
L 123.778076 117.60895 
L 123.986364 117.300172 
L 124.185475 116.991394 
L 124.375446 116.682616 
L 124.55637 116.373838 
L 124.728385 116.06506 
L 124.891671 115.756283 
L 125.046448 115.447505 
L 125.192967 115.138727 
L 125.331509 114.829949 
L 125.462379 114.521171 
L 125.585903 114.212393 
L 125.702425 113.903615 
L 125.812302 113.594837 
L 125.915901 113.28606 
L 126.013596 112.977282 
L 126.10577 112.668504 
L 126.192804 112.359726 
L 126.275083 112.050948 
L 126.352991 111.74217 
L 126.426911 111.433392 
L 126.49722 111.124615 
L 126.564294 110.815837 
L 126.628502 110.507059 
L 126.690208 110.198281 
L 126.749769 109.889503 
L 126.807537 109.580725 
L 126.863852 109.271947 
L 126.919052 108.96317 
L 126.973461 108.654392 
L 127.027397 108.345614 
L 127.081167 108.036836 
L 127.135067 107.728058 
L 127.189382 107.41928 
L 127.244385 107.110502 
L 127.300335 106.801724 
L 127.357476 106.492947 
L 127.416038 106.184169 
L 127.476234 105.875391 
L 127.538258 105.566613 
L 127.602288 105.257835 
L 127.668478 104.949057 
L 127.736964 104.640279 
L 127.807858 104.331502 
L 127.88125 104.022724 
L 127.957207 103.713946 
L 128.035769 103.405168 
L 136.509685 103.405168 
L 136.509685 103.405168 
L 136.588248 103.713946 
L 136.664204 104.022724 
L 136.737597 104.331502 
L 136.808491 104.640279 
L 136.876977 104.949057 
L 136.943167 105.257835 
L 137.007196 105.566613 
L 137.069221 105.875391 
L 137.129417 106.184169 
L 137.187979 106.492947 
L 137.24512 106.801724 
L 137.30107 107.110502 
L 137.356072 107.41928 
L 137.410387 107.728058 
L 137.464288 108.036836 
L 137.518057 108.345614 
L 137.571993 108.654392 
L 137.626403 108.96317 
L 137.681602 109.271947 
L 137.737918 109.580725 
L 137.795685 109.889503 
L 137.855246 110.198281 
L 137.916952 110.507059 
L 137.98116 110.815837 
L 138.048234 111.124615 
L 138.118544 111.433392 
L 138.192463 111.74217 
L 138.270372 112.050948 
L 138.352651 112.359726 
L 138.439685 112.668504 
L 138.531858 112.977282 
L 138.629554 113.28606 
L 138.733153 113.594837 
L 138.843029 113.903615 
L 138.959552 114.212393 
L 139.083076 114.521171 
L 139.213946 114.829949 
L 139.352488 115.138727 
L 139.499006 115.447505 
L 139.653783 115.756283 
L 139.81707 116.06506 
L 139.989084 116.373838 
L 140.170008 116.682616 
L 140.35998 116.991394 
L 140.55909 117.300172 
L 140.767378 117.60895 
L 140.984828 117.917728 
L 141.21136 118.226505 
L 141.446831 118.535283 
L 141.69103 118.844061 
L 141.943672 119.152839 
L 142.204395 119.461617 
L 142.472761 119.770395 
L 142.748249 120.079173 
L 143.03026 120.38795 
L 143.318109 120.696728 
L 143.61103 121.005506 
L 143.908178 121.314284 
L 144.208625 121.623062 
L 144.511369 121.93184 
L 144.815335 122.240618 
L 145.119376 122.549396 
L 145.422287 122.858173 
L 145.722803 123.166951 
L 146.01961 123.475729 
L 146.311352 123.784507 
L 146.596641 124.093285 
L 146.874065 124.402063 
L 147.142196 124.710841 
L 147.399605 125.019618 
L 147.644871 125.328396 
L 147.87659 125.637174 
L 148.093387 125.945952 
L 148.29393 126.25473 
L 148.47694 126.563508 
L 148.641199 126.872286 
L 148.785565 127.181064 
L 148.908979 127.489841 
L 149.010479 127.798619 
L 149.089202 128.107397 
L 149.1444 128.416175 
L 149.175441 128.724953 
L 149.181818 129.033731 
L 149.163156 129.342509 
L 149.119211 129.651286 
L 149.049877 129.960064 
L 148.955187 130.268842 
L 148.835311 130.57762 
L 148.690558 130.886398 
L 148.521371 131.195176 
L 148.328326 131.503954 
L 148.112126 131.812731 
L 147.873595 132.121509 
L 147.613672 132.430287 
L 147.333402 132.739065 
L 147.03393 133.047843 
L 146.716488 133.356621 
L 146.382387 133.665399 
L 146.033005 133.974177 
z
" style="fill:#ff7f0e;fill-opacity:0.3;"/>
   </g>
   <g id="PolyCollection_2">
    <path clip-path="url(#p08837b3bbb)" d="M 204.444759 238.637171 
L 195.373423 238.637171 
L 195.260774 237.925698 
L 195.146381 237.214224 
L 195.02955 236.502751 
L 194.909532 235.791278 
L 194.785535 235.079805 
L 194.656734 234.368331 
L 194.522282 233.656858 
L 194.381322 232.945385 
L 194.233 232.233912 
L 194.076481 231.522438 
L 193.910958 230.810965 
L 193.735675 230.099492 
L 193.549933 229.388018 
L 193.353108 228.676545 
L 193.144667 227.965072 
L 192.924177 227.253599 
L 192.691318 226.542125 
L 192.445897 225.830652 
L 192.187852 225.119179 
L 191.917267 224.407706 
L 191.634369 223.696232 
L 191.33954 222.984759 
L 191.033315 222.273286 
L 190.716383 221.561813 
L 190.389584 220.850339 
L 190.053905 220.138866 
L 189.710473 219.427393 
L 189.360544 218.71592 
L 189.005498 218.004446 
L 188.646817 217.292973 
L 188.28608 216.5815 
L 187.924938 215.870027 
L 187.565105 215.158553 
L 187.208331 214.44708 
L 186.856392 213.735607 
L 186.511061 213.024134 
L 186.174096 212.31266 
L 185.847216 211.601187 
L 185.532083 210.889714 
L 185.230284 210.17824 
L 184.943315 209.466767 
L 184.672562 208.755294 
L 184.41929 208.043821 
L 184.184629 207.332347 
L 183.969566 206.620874 
L 183.77493 205.909401 
L 183.601397 205.197928 
L 183.449475 204.486454 
L 183.319511 203.774981 
L 183.211688 203.063508 
L 183.126029 202.352035 
L 183.062403 201.640561 
L 183.020532 200.929088 
L 183 200.217615 
L 183.000265 199.506142 
L 183.020669 198.794668 
L 183.060453 198.083195 
L 183.118771 197.371722 
L 183.194705 196.660249 
L 183.28728 195.948775 
L 183.395478 195.237302 
L 183.518255 194.525829 
L 183.654553 193.814356 
L 183.803316 193.102882 
L 183.963502 192.391409 
L 184.134096 191.679936 
L 184.314118 190.968462 
L 184.502634 190.256989 
L 184.698764 189.545516 
L 184.901689 188.834043 
L 185.110654 188.122569 
L 185.324971 187.411096 
L 185.544023 186.699623 
L 185.767265 185.98815 
L 185.994221 185.276676 
L 186.22448 184.565203 
L 186.457698 183.85373 
L 186.693592 183.142257 
L 186.931933 182.430783 
L 187.172541 181.71931 
L 187.415281 181.007837 
L 187.660054 180.296364 
L 187.906793 179.58489 
L 188.155452 178.873417 
L 188.406004 178.161944 
L 188.658429 177.450471 
L 188.912713 176.738997 
L 189.16884 176.027524 
L 189.426783 175.316051 
L 189.686504 174.604578 
L 189.947948 173.893104 
L 190.211038 173.181631 
L 190.475672 172.470158 
L 190.741721 171.758684 
L 191.009029 171.047211 
L 191.277407 170.335738 
L 191.546639 169.624265 
L 191.816476 168.912791 
L 192.086642 168.201318 
L 207.73154 168.201318 
L 207.73154 168.201318 
L 208.001705 168.912791 
L 208.271543 169.624265 
L 208.540774 170.335738 
L 208.809153 171.047211 
L 209.076461 171.758684 
L 209.34251 172.470158 
L 209.607144 173.181631 
L 209.870233 173.893104 
L 210.131678 174.604578 
L 210.391399 175.316051 
L 210.649342 176.027524 
L 210.905469 176.738997 
L 211.159753 177.450471 
L 211.412178 178.161944 
L 211.66273 178.873417 
L 211.911389 179.58489 
L 212.158128 180.296364 
L 212.402901 181.007837 
L 212.645641 181.71931 
L 212.886249 182.430783 
L 213.12459 183.142257 
L 213.360484 183.85373 
L 213.593702 184.565203 
L 213.823961 185.276676 
L 214.050916 185.98815 
L 214.274158 186.699623 
L 214.493211 187.411096 
L 214.707528 188.122569 
L 214.916492 188.834043 
L 215.119417 189.545516 
L 215.315548 190.256989 
L 215.504064 190.968462 
L 215.684086 191.679936 
L 215.85468 192.391409 
L 216.014866 193.102882 
L 216.163629 193.814356 
L 216.299927 194.525829 
L 216.422703 195.237302 
L 216.530902 195.948775 
L 216.623477 196.660249 
L 216.699411 197.371722 
L 216.757729 198.083195 
L 216.797513 198.794668 
L 216.817917 199.506142 
L 216.818182 200.217615 
L 216.79765 200.929088 
L 216.755779 201.640561 
L 216.692153 202.352035 
L 216.606494 203.063508 
L 216.498671 203.774981 
L 216.368707 204.486454 
L 216.216785 205.197928 
L 216.043251 205.909401 
L 215.848616 206.620874 
L 215.633552 207.332347 
L 215.398892 208.043821 
L 215.14562 208.755294 
L 214.874867 209.466767 
L 214.587898 210.17824 
L 214.286099 210.889714 
L 213.970966 211.601187 
L 213.644086 212.31266 
L 213.307121 213.024134 
L 212.96179 213.735607 
L 212.60985 214.44708 
L 212.253077 215.158553 
L 211.893244 215.870027 
L 211.532102 216.5815 
L 211.171365 217.292973 
L 210.812684 218.004446 
L 210.457637 218.71592 
L 210.107709 219.427393 
L 209.764277 220.138866 
L 209.428598 220.850339 
L 209.101799 221.561813 
L 208.784867 222.273286 
L 208.478642 222.984759 
L 208.183813 223.696232 
L 207.900915 224.407706 
L 207.630329 225.119179 
L 207.372285 225.830652 
L 207.126864 226.542125 
L 206.894005 227.253599 
L 206.673515 227.965072 
L 206.465074 228.676545 
L 206.268249 229.388018 
L 206.082507 230.099492 
L 205.907223 230.810965 
L 205.741701 231.522438 
L 205.585182 232.233912 
L 205.43686 232.945385 
L 205.2959 233.656858 
L 205.161448 234.368331 
L 205.032647 235.079805 
L 204.90865 235.791278 
L 204.788632 236.502751 
L 204.671801 237.214224 
L 204.557408 237.925698 
L 204.444759 238.637171 
z
" style="fill:#ff7f0e;fill-opacity:0.3;"/>
   </g>
   <g id="PolyCollection_3">
    <path clip-path="url(#p08837b3bbb)" d="M 282.514653 126.723365 
L 252.576257 126.723365 
L 252.326402 126.475699 
L 252.093029 126.228033 
L 251.876593 125.980367 
L 251.677456 125.732701 
L 251.495879 125.485035 
L 251.332027 125.237369 
L 251.185969 124.989703 
L 251.057675 124.742037 
L 250.947027 124.494371 
L 250.853813 124.246705 
L 250.777741 123.999039 
L 250.718438 123.751373 
L 250.675458 123.503707 
L 250.64829 123.256041 
L 250.636364 123.008375 
L 250.639059 122.760709 
L 250.655711 122.513043 
L 250.685624 122.265377 
L 250.728074 122.017711 
L 250.782321 121.770045 
L 250.847614 121.522379 
L 250.923206 121.274713 
L 251.008352 121.027047 
L 251.102326 120.779381 
L 251.204419 120.531715 
L 251.313954 120.284049 
L 251.430285 120.036383 
L 251.552803 119.788717 
L 251.680942 119.541051 
L 251.814182 119.293385 
L 251.952049 119.045719 
L 252.094118 118.798053 
L 252.240013 118.550387 
L 252.389407 118.302721 
L 252.542022 118.055055 
L 252.697624 117.807389 
L 252.856024 117.559723 
L 253.017072 117.312057 
L 253.180656 117.064391 
L 253.346694 116.816725 
L 253.515132 116.569059 
L 253.685939 116.321393 
L 253.859101 116.073727 
L 254.034614 115.826061 
L 254.212483 115.578395 
L 254.392712 115.330729 
L 254.575302 115.083063 
L 254.760245 114.835397 
L 254.947521 114.587731 
L 255.13709 114.340065 
L 255.328894 114.092399 
L 255.522849 113.844733 
L 255.718846 113.597067 
L 255.916749 113.349401 
L 256.11639 113.101735 
L 256.317573 112.854069 
L 256.520074 112.606403 
L 256.723639 112.358737 
L 256.927987 112.111071 
L 257.132813 111.863405 
L 257.33779 111.615739 
L 257.54257 111.368073 
L 257.746793 111.120407 
L 257.950087 110.872741 
L 258.152071 110.625075 
L 258.352363 110.377409 
L 258.550585 110.129743 
L 258.746365 109.882077 
L 258.939342 109.634411 
L 259.129173 109.386745 
L 259.315535 109.139079 
L 259.498132 108.891413 
L 259.676695 108.643747 
L 259.85099 108.396081 
L 260.020817 108.148415 
L 260.186015 107.900749 
L 260.346462 107.653083 
L 260.50208 107.405417 
L 260.652831 107.157751 
L 260.798722 106.910085 
L 260.9398 106.662419 
L 261.076155 106.414753 
L 261.207916 106.167087 
L 261.33525 105.919421 
L 261.458358 105.671755 
L 261.577476 105.424089 
L 261.692864 105.176423 
L 261.804811 104.928757 
L 261.913624 104.681091 
L 262.019628 104.433425 
L 262.123158 104.185759 
L 262.224557 103.938093 
L 262.324171 103.690427 
L 262.422344 103.442761 
L 262.519412 103.195095 
L 262.615703 102.947429 
L 262.711529 102.699763 
L 262.807182 102.452097 
L 262.902936 102.204431 
L 272.187973 102.204431 
L 272.187973 102.204431 
L 272.283727 102.452097 
L 272.37938 102.699763 
L 272.475206 102.947429 
L 272.571497 103.195095 
L 272.668565 103.442761 
L 272.766738 103.690427 
L 272.866352 103.938093 
L 272.967751 104.185759 
L 273.071281 104.433425 
L 273.177285 104.681091 
L 273.286098 104.928757 
L 273.398045 105.176423 
L 273.513434 105.424089 
L 273.632551 105.671755 
L 273.755659 105.919421 
L 273.882993 106.167087 
L 274.014754 106.414753 
L 274.151109 106.662419 
L 274.292187 106.910085 
L 274.438078 107.157751 
L 274.588829 107.405417 
L 274.744447 107.653083 
L 274.904895 107.900749 
L 275.070092 108.148415 
L 275.239919 108.396081 
L 275.414214 108.643747 
L 275.592777 108.891413 
L 275.775374 109.139079 
L 275.961736 109.386745 
L 276.151567 109.634411 
L 276.344544 109.882077 
L 276.540324 110.129743 
L 276.738546 110.377409 
L 276.938839 110.625075 
L 277.140822 110.872741 
L 277.344116 111.120407 
L 277.548339 111.368073 
L 277.753119 111.615739 
L 277.958096 111.863405 
L 278.162922 112.111071 
L 278.36727 112.358737 
L 278.570835 112.606403 
L 278.773336 112.854069 
L 278.974519 113.101735 
L 279.17416 113.349401 
L 279.372063 113.597067 
L 279.56806 113.844733 
L 279.762016 114.092399 
L 279.953819 114.340065 
L 280.143388 114.587731 
L 280.330664 114.835397 
L 280.515607 115.083063 
L 280.698197 115.330729 
L 280.878426 115.578395 
L 281.056295 115.826061 
L 281.231808 116.073727 
L 281.40497 116.321393 
L 281.575777 116.569059 
L 281.744215 116.816725 
L 281.910253 117.064391 
L 282.073837 117.312057 
L 282.234885 117.559723 
L 282.393285 117.807389 
L 282.548888 118.055055 
L 282.701502 118.302721 
L 282.850896 118.550387 
L 282.996791 118.798053 
L 283.13886 119.045719 
L 283.276727 119.293385 
L 283.409967 119.541051 
L 283.538106 119.788717 
L 283.660624 120.036383 
L 283.776955 120.284049 
L 283.88649 120.531715 
L 283.988584 120.779381 
L 284.082557 121.027047 
L 284.167703 121.274713 
L 284.243295 121.522379 
L 284.308588 121.770045 
L 284.362835 122.017711 
L 284.405285 122.265377 
L 284.435198 122.513043 
L 284.45185 122.760709 
L 284.454545 123.008375 
L 284.442619 123.256041 
L 284.415451 123.503707 
L 284.372471 123.751373 
L 284.313168 123.999039 
L 284.237096 124.246705 
L 284.143882 124.494371 
L 284.033234 124.742037 
L 283.90494 124.989703 
L 283.758882 125.237369 
L 283.59503 125.485035 
L 283.413453 125.732701 
L 283.214316 125.980367 
L 282.99788 126.228033 
L 282.764507 126.475699 
L 282.514653 126.723365 
z
" style="fill:#ff7f0e;fill-opacity:0.3;"/>
   </g>
   <g id="PolyCollection_4">
    <path clip-path="url(#p08837b3bbb)" d="M 346.746523 137.635512 
L 323.617114 137.635512 
L 323.337314 137.078073 
L 323.062141 136.520635 
L 322.7919 135.963197 
L 322.526879 135.405759 
L 322.267354 134.84832 
L 322.013585 134.290882 
L 321.765823 133.733444 
L 321.524312 133.176006 
L 321.289291 132.618568 
L 321.060994 132.061129 
L 320.839658 131.503691 
L 320.625521 130.946253 
L 320.418824 130.388815 
L 320.219815 129.831376 
L 320.028749 129.273938 
L 319.845889 128.7165 
L 319.671508 128.159062 
L 319.505886 127.601624 
L 319.349313 127.044185 
L 319.202086 126.486747 
L 319.064508 125.929309 
L 318.936887 125.371871 
L 318.819531 124.814432 
L 318.712748 124.256994 
L 318.616841 123.699556 
L 318.532105 123.142118 
L 318.458823 122.58468 
L 318.397261 122.027241 
L 318.347666 121.469803 
L 318.310257 120.912365 
L 318.285225 120.354927 
L 318.272727 119.797488 
L 318.272882 119.24005 
L 318.285766 118.682612 
L 318.31141 118.125174 
L 318.349796 117.567736 
L 318.400853 117.010297 
L 318.464457 116.452859 
L 318.54043 115.895421 
L 318.628534 115.337983 
L 318.728479 114.780545 
L 318.839914 114.223106 
L 318.962436 113.665668 
L 319.095588 113.10823 
L 319.23886 112.550792 
L 319.391697 111.993353 
L 319.553498 111.435915 
L 319.723624 110.878477 
L 319.9014 110.321039 
L 320.086124 109.763601 
L 320.277068 109.206162 
L 320.473487 108.648724 
L 320.674627 108.091286 
L 320.879728 107.533848 
L 321.088033 106.976409 
L 321.298792 106.418971 
L 321.511272 105.861533 
L 321.724761 105.304095 
L 321.938574 104.746657 
L 322.15206 104.189218 
L 322.364605 103.63178 
L 322.575639 103.074342 
L 322.78464 102.516904 
L 322.991136 101.959465 
L 323.194709 101.402027 
L 323.394998 100.844589 
L 323.591699 100.287151 
L 323.78457 99.729713 
L 323.973424 99.172274 
L 324.158138 98.614836 
L 324.338644 98.057398 
L 324.514931 97.49996 
L 324.687043 96.942521 
L 324.855076 96.385083 
L 325.019174 95.827645 
L 325.179525 95.270207 
L 325.336357 94.712769 
L 325.489937 94.15533 
L 325.640561 93.597892 
L 325.78855 93.040454 
L 325.934249 92.483016 
L 326.078017 91.925577 
L 326.220225 91.368139 
L 326.361248 90.810701 
L 326.501463 90.253263 
L 326.641243 89.695825 
L 326.780949 89.138386 
L 326.92093 88.580948 
L 327.061517 88.02351 
L 327.203018 87.466072 
L 327.345719 86.908633 
L 327.489874 86.351195 
L 327.635706 85.793757 
L 327.783408 85.236319 
L 327.933134 84.678881 
L 328.085004 84.121442 
L 328.2391 83.564004 
L 328.395465 83.006566 
L 328.554106 82.449128 
L 341.80953 82.449128 
L 341.80953 82.449128 
L 341.968171 83.006566 
L 342.124537 83.564004 
L 342.278632 84.121442 
L 342.430502 84.678881 
L 342.580228 85.236319 
L 342.72793 85.793757 
L 342.873763 86.351195 
L 343.017917 86.908633 
L 343.160618 87.466072 
L 343.30212 88.02351 
L 343.442707 88.580948 
L 343.582688 89.138386 
L 343.722394 89.695825 
L 343.862173 90.253263 
L 344.002388 90.810701 
L 344.143412 91.368139 
L 344.28562 91.925577 
L 344.429388 92.483016 
L 344.575087 93.040454 
L 344.723076 93.597892 
L 344.873699 94.15533 
L 345.027279 94.712769 
L 345.184112 95.270207 
L 345.344463 95.827645 
L 345.50856 96.385083 
L 345.676593 96.942521 
L 345.848706 97.49996 
L 346.024993 98.057398 
L 346.205498 98.614836 
L 346.390212 99.172274 
L 346.579067 99.729713 
L 346.771937 100.287151 
L 346.968639 100.844589 
L 347.168928 101.402027 
L 347.3725 101.959465 
L 347.578996 102.516904 
L 347.787997 103.074342 
L 347.999031 103.63178 
L 348.211577 104.189218 
L 348.425062 104.746657 
L 348.638875 105.304095 
L 348.852364 105.861533 
L 349.064845 106.418971 
L 349.275604 106.976409 
L 349.483908 107.533848 
L 349.689009 108.091286 
L 349.890149 108.648724 
L 350.086569 109.206162 
L 350.277512 109.763601 
L 350.462236 110.321039 
L 350.640013 110.878477 
L 350.810139 111.435915 
L 350.97194 111.993353 
L 351.124776 112.550792 
L 351.268049 113.10823 
L 351.4012 113.665668 
L 351.523722 114.223106 
L 351.635157 114.780545 
L 351.735102 115.337983 
L 351.823207 115.895421 
L 351.899179 116.452859 
L 351.962784 117.010297 
L 352.013841 117.567736 
L 352.052226 118.125174 
L 352.07787 118.682612 
L 352.090754 119.24005 
L 352.090909 119.797488 
L 352.078411 120.354927 
L 352.05338 120.912365 
L 352.015971 121.469803 
L 351.966375 122.027241 
L 351.904813 122.58468 
L 351.831532 123.142118 
L 351.746796 123.699556 
L 351.650889 124.256994 
L 351.544106 124.814432 
L 351.426749 125.371871 
L 351.299128 125.929309 
L 351.16155 126.486747 
L 351.014323 127.044185 
L 350.85775 127.601624 
L 350.692129 128.159062 
L 350.517747 128.7165 
L 350.334888 129.273938 
L 350.143821 129.831376 
L 349.944812 130.388815 
L 349.738115 130.946253 
L 349.523978 131.503691 
L 349.302642 132.061129 
L 349.074346 132.618568 
L 348.839324 133.176006 
L 348.597813 133.733444 
L 348.350052 134.290882 
L 348.096282 134.84832 
L 347.836757 135.405759 
L 347.571737 135.963197 
L 347.301496 136.520635 
L 347.026323 137.078073 
L 346.746523 137.635512 
z
" style="fill:#ff7f0e;fill-opacity:0.3;"/>
   </g>
   <g id="PolyCollection_5">
    <path clip-path="url(#p08837b3bbb)" d="M 407.427124 222.188306 
L 398.20924 222.188306 
L 398.063798 221.773887 
L 397.91458 221.359468 
L 397.760857 220.94505 
L 397.601856 220.530631 
L 397.436775 220.116212 
L 397.264792 219.701794 
L 397.08508 219.287375 
L 396.896823 218.872957 
L 396.699232 218.458538 
L 396.491561 218.044119 
L 396.273121 217.629701 
L 396.043302 217.215282 
L 395.801586 216.800863 
L 395.547561 216.386445 
L 395.280941 215.972026 
L 395.001574 215.557607 
L 394.709459 215.143189 
L 394.404753 214.72877 
L 394.087779 214.314352 
L 393.759038 213.899933 
L 393.419204 213.485514 
L 393.069132 213.071096 
L 392.709857 212.656677 
L 392.342584 212.242258 
L 391.968688 211.82784 
L 391.589702 211.413421 
L 391.207306 210.999002 
L 390.823311 210.584584 
L 390.439645 210.170165 
L 390.058336 209.755747 
L 389.681488 209.341328 
L 389.31126 208.926909 
L 388.949848 208.512491 
L 388.599454 208.098072 
L 388.262269 207.683653 
L 387.940443 207.269235 
L 387.636064 206.854816 
L 387.351133 206.440398 
L 387.087542 206.025979 
L 386.847053 205.61156 
L 386.631275 205.197142 
L 386.441651 204.782723 
L 386.279438 204.368304 
L 386.145695 203.953886 
L 386.04127 203.539467 
L 385.966795 203.125048 
L 385.922675 202.71063 
L 385.909091 202.296211 
L 385.925994 201.881793 
L 385.973111 201.467374 
L 386.049949 201.052955 
L 386.155802 200.638537 
L 386.289764 200.224118 
L 386.450735 199.809699 
L 386.637442 199.395281 
L 386.848452 198.980862 
L 387.082189 198.566444 
L 387.336953 198.152025 
L 387.61094 197.737606 
L 387.902263 197.323188 
L 388.208971 196.908769 
L 388.529072 196.49435 
L 388.860551 196.079932 
L 389.201392 195.665513 
L 389.549598 195.251094 
L 389.903208 194.836676 
L 390.260316 194.422257 
L 390.619087 194.007839 
L 390.977773 193.59342 
L 391.334726 193.179001 
L 391.688408 192.764583 
L 392.037405 192.350164 
L 392.380434 191.935745 
L 392.716348 191.521327 
L 393.044144 191.106908 
L 393.362963 190.69249 
L 393.672094 190.278071 
L 393.970974 189.863652 
L 394.259182 189.449234 
L 394.53644 189.034815 
L 394.802607 188.620396 
L 395.057669 188.205978 
L 395.301735 187.791559 
L 395.535026 187.37714 
L 395.757868 186.962722 
L 395.970677 186.548303 
L 396.173948 186.133885 
L 396.368248 185.719466 
L 396.554197 185.305047 
L 396.73246 184.890629 
L 396.903731 184.47621 
L 397.068723 184.061791 
L 397.228155 183.647373 
L 397.38274 183.232954 
L 397.533175 182.818535 
L 397.680127 182.404117 
L 397.824231 181.989698 
L 397.966074 181.57528 
L 398.106193 181.160861 
L 407.530171 181.160861 
L 407.530171 181.160861 
L 407.67029 181.57528 
L 407.812133 181.989698 
L 407.956237 182.404117 
L 408.103189 182.818535 
L 408.253623 183.232954 
L 408.408208 183.647373 
L 408.56764 184.061791 
L 408.732632 184.47621 
L 408.903904 184.890629 
L 409.082166 185.305047 
L 409.268116 185.719466 
L 409.462416 186.133885 
L 409.665687 186.548303 
L 409.878495 186.962722 
L 410.101337 187.37714 
L 410.334629 187.791559 
L 410.578695 188.205978 
L 410.833757 188.620396 
L 411.099923 189.034815 
L 411.377182 189.449234 
L 411.66539 189.863652 
L 411.96427 190.278071 
L 412.273401 190.69249 
L 412.59222 191.106908 
L 412.920015 191.521327 
L 413.255929 191.935745 
L 413.598958 192.350164 
L 413.947956 192.764583 
L 414.301638 193.179001 
L 414.658591 193.59342 
L 415.017277 194.007839 
L 415.376048 194.422257 
L 415.733156 194.836676 
L 416.086766 195.251094 
L 416.434971 195.665513 
L 416.775813 196.079932 
L 417.107291 196.49435 
L 417.427392 196.908769 
L 417.734101 197.323188 
L 418.025424 197.737606 
L 418.299411 198.152025 
L 418.554175 198.566444 
L 418.787911 198.980862 
L 418.998921 199.395281 
L 419.185629 199.809699 
L 419.3466 200.224118 
L 419.480561 200.638537 
L 419.586415 201.052955 
L 419.663253 201.467374 
L 419.71037 201.881793 
L 419.727273 202.296211 
L 419.713688 202.71063 
L 419.669569 203.125048 
L 419.595093 203.539467 
L 419.490669 203.953886 
L 419.356925 204.368304 
L 419.194712 204.782723 
L 419.005089 205.197142 
L 418.789311 205.61156 
L 418.548821 206.025979 
L 418.28523 206.440398 
L 418.000299 206.854816 
L 417.69592 207.269235 
L 417.374094 207.683653 
L 417.036909 208.098072 
L 416.686516 208.512491 
L 416.325103 208.926909 
L 415.954876 209.341328 
L 415.578027 209.755747 
L 415.196718 210.170165 
L 414.813053 210.584584 
L 414.429058 210.999002 
L 414.046661 211.413421 
L 413.667675 211.82784 
L 413.29378 212.242258 
L 412.926507 212.656677 
L 412.567231 213.071096 
L 412.21716 213.485514 
L 411.877326 213.899933 
L 411.548584 214.314352 
L 411.231611 214.72877 
L 410.926904 215.143189 
L 410.634789 215.557607 
L 410.355423 215.972026 
L 410.088802 216.386445 
L 409.834778 216.800863 
L 409.593061 217.215282 
L 409.363243 217.629701 
L 409.144803 218.044119 
L 408.937131 218.458538 
L 408.73954 218.872957 
L 408.551284 219.287375 
L 408.371572 219.701794 
L 408.199588 220.116212 
L 408.034507 220.530631 
L 407.875507 220.94505 
L 407.721784 221.359468 
L 407.572566 221.773887 
L 407.427124 222.188306 
z
" style="fill:#ff7f0e;fill-opacity:0.3;"/>
   </g>
   <g id="PolyCollection_6">
    <path clip-path="url(#p08837b3bbb)" d="M 477.776871 140.094769 
L 463.13222 140.094769 
L 462.829067 139.45939 
L 462.521011 138.824011 
L 462.208187 138.188632 
L 461.890753 137.553253 
L 461.568896 136.917874 
L 461.24284 136.282495 
L 460.912853 135.647116 
L 460.579259 135.011737 
L 460.242441 134.376358 
L 459.902852 133.740979 
L 459.561023 133.1056 
L 459.217567 132.470221 
L 458.873187 131.834842 
L 458.528682 131.199463 
L 458.184947 130.564084 
L 457.842975 129.928705 
L 457.503863 129.293326 
L 457.168802 128.657947 
L 456.839081 128.022568 
L 456.516076 127.387189 
L 456.201245 126.75181 
L 455.89612 126.116431 
L 455.602292 125.481052 
L 455.321399 124.845673 
L 455.055114 124.210294 
L 454.805121 123.574915 
L 454.573107 122.939536 
L 454.360734 122.304157 
L 454.169624 121.668778 
L 454.001337 121.033399 
L 453.857352 120.39802 
L 453.739045 119.762641 
L 453.647669 119.127262 
L 453.584338 118.491883 
L 453.550007 117.856504 
L 453.545455 117.221125 
L 453.571272 116.585746 
L 453.627847 115.950367 
L 453.715359 115.314988 
L 453.833768 114.679609 
L 453.982809 114.04423 
L 454.161993 113.40885 
L 454.370609 112.773471 
L 454.607722 112.138092 
L 454.872185 111.502713 
L 455.162648 110.867334 
L 455.477567 110.231955 
L 455.81522 109.596576 
L 456.173724 108.961197 
L 456.551053 108.325818 
L 456.945055 107.690439 
L 457.353482 107.05506 
L 457.774 106.419681 
L 458.204226 105.784302 
L 458.641738 105.148923 
L 459.084109 104.513544 
L 459.528925 103.878165 
L 459.973811 103.242786 
L 460.416448 102.607407 
L 460.854601 101.972028 
L 461.28613 101.336649 
L 461.709016 100.70127 
L 462.121371 100.065891 
L 462.521457 99.430512 
L 462.907695 98.795133 
L 463.278675 98.159754 
L 463.633169 97.524375 
L 463.97013 96.888996 
L 464.288702 96.253617 
L 464.588216 95.618238 
L 464.868195 94.982859 
L 465.12835 94.34748 
L 465.368574 93.712101 
L 465.588937 93.076722 
L 465.789681 92.441343 
L 465.971208 91.805964 
L 466.13407 91.170585 
L 466.278958 90.535206 
L 466.406693 89.899827 
L 466.518206 89.264448 
L 466.614528 88.629069 
L 466.696775 87.99369 
L 466.766134 87.358311 
L 466.823845 86.722932 
L 466.871189 86.087553 
L 466.90947 85.452174 
L 466.940005 84.816794 
L 466.964101 84.181415 
L 466.983053 83.546036 
L 466.998121 82.910657 
L 467.010523 82.275278 
L 467.02142 81.639899 
L 467.03191 81.00452 
L 467.043017 80.369141 
L 467.055683 79.733762 
L 467.070759 79.098383 
L 467.089004 78.463004 
L 467.111078 77.827625 
L 467.137541 77.192246 
L 473.77155 77.192246 
L 473.77155 77.192246 
L 473.798013 77.827625 
L 473.820087 78.463004 
L 473.838332 79.098383 
L 473.853408 79.733762 
L 473.866073 80.369141 
L 473.877181 81.00452 
L 473.887671 81.639899 
L 473.898568 82.275278 
L 473.91097 82.910657 
L 473.926037 83.546036 
L 473.944989 84.181415 
L 473.969086 84.816794 
L 473.99962 85.452174 
L 474.037902 86.087553 
L 474.085246 86.722932 
L 474.142957 87.358311 
L 474.212316 87.99369 
L 474.294563 88.629069 
L 474.390885 89.264448 
L 474.502398 89.899827 
L 474.630132 90.535206 
L 474.775021 91.170585 
L 474.937883 91.805964 
L 475.11941 92.441343 
L 475.320154 93.076722 
L 475.540517 93.712101 
L 475.780741 94.34748 
L 476.040896 94.982859 
L 476.320875 95.618238 
L 476.620389 96.253617 
L 476.938961 96.888996 
L 477.275922 97.524375 
L 477.630415 98.159754 
L 478.001396 98.795133 
L 478.387634 99.430512 
L 478.78772 100.065891 
L 479.200075 100.70127 
L 479.622961 101.336649 
L 480.05449 101.972028 
L 480.492643 102.607407 
L 480.93528 103.242786 
L 481.380166 103.878165 
L 481.824982 104.513544 
L 482.267353 105.148923 
L 482.704865 105.784302 
L 483.13509 106.419681 
L 483.555609 107.05506 
L 483.964036 107.690439 
L 484.358038 108.325818 
L 484.735367 108.961197 
L 485.093871 109.596576 
L 485.431524 110.231955 
L 485.746443 110.867334 
L 486.036906 111.502713 
L 486.301369 112.138092 
L 486.538482 112.773471 
L 486.747097 113.40885 
L 486.926282 114.04423 
L 487.075323 114.679609 
L 487.193731 115.314988 
L 487.281244 115.950367 
L 487.337819 116.585746 
L 487.363636 117.221125 
L 487.359084 117.856504 
L 487.324753 118.491883 
L 487.261422 119.127262 
L 487.170046 119.762641 
L 487.051739 120.39802 
L 486.907754 121.033399 
L 486.739467 121.668778 
L 486.548357 122.304157 
L 486.335984 122.939536 
L 486.10397 123.574915 
L 485.853977 124.210294 
L 485.587692 124.845673 
L 485.306799 125.481052 
L 485.012971 126.116431 
L 484.707846 126.75181 
L 484.393015 127.387189 
L 484.07001 128.022568 
L 483.740288 128.657947 
L 483.405228 129.293326 
L 483.066115 129.928705 
L 482.724144 130.564084 
L 482.380409 131.199463 
L 482.035904 131.834842 
L 481.691524 132.470221 
L 481.348068 133.1056 
L 481.006239 133.740979 
L 480.66665 134.376358 
L 480.329832 135.011737 
L 479.996238 135.647116 
L 479.666251 136.282495 
L 479.340195 136.917874 
L 479.018338 137.553253 
L 478.700904 138.188632 
L 478.38808 138.824011 
L 478.080024 139.45939 
L 477.776871 140.094769 
z
" style="fill:#ff7f0e;fill-opacity:0.3;"/>
   </g>
   <g id="PolyCollection_7">
    <path clip-path="url(#p08837b3bbb)" d="M 545.17718 216.203387 
L 531.004638 216.203387 
L 530.683702 215.683212 
L 530.355589 215.163038 
L 530.020544 214.642863 
L 529.678871 214.122689 
L 529.330945 213.602514 
L 528.977215 213.08234 
L 528.618213 212.562165 
L 528.254559 212.041991 
L 527.886966 211.521816 
L 527.516247 211.001642 
L 527.143311 210.481467 
L 526.769172 209.961293 
L 526.394945 209.441118 
L 526.021844 208.920944 
L 525.65118 208.400769 
L 525.284356 207.880595 
L 524.922857 207.36042 
L 524.568245 206.840246 
L 524.222145 206.320072 
L 523.886236 205.799897 
L 523.562234 205.279723 
L 523.251878 204.759548 
L 522.956916 204.239374 
L 522.679085 203.719199 
L 522.420094 203.199025 
L 522.181605 202.67885 
L 521.965217 202.158676 
L 521.772446 201.638501 
L 521.604704 201.118327 
L 521.463289 200.598152 
L 521.349363 200.077978 
L 521.263939 199.557803 
L 521.207866 199.037629 
L 521.181818 198.517454 
L 521.186287 197.99728 
L 521.221568 197.477105 
L 521.287761 196.956931 
L 521.38476 196.436756 
L 521.512255 195.916582 
L 521.669735 195.396407 
L 521.856486 194.876233 
L 522.0716 194.356058 
L 522.313979 193.835884 
L 522.582349 193.315709 
L 522.875265 192.795535 
L 523.191129 192.275361 
L 523.528202 191.755186 
L 523.88462 191.235012 
L 524.258411 190.714837 
L 524.647512 190.194663 
L 525.049788 189.674488 
L 525.463049 189.154314 
L 525.885073 188.634139 
L 526.313621 188.113965 
L 526.746458 187.59379 
L 527.181371 187.073616 
L 527.616186 186.553441 
L 528.048788 186.033267 
L 528.477132 185.513092 
L 528.899266 184.992918 
L 529.313339 184.472743 
L 529.717614 183.952569 
L 530.110484 183.432394 
L 530.49048 182.91222 
L 530.856277 182.392045 
L 531.206705 181.871871 
L 531.540752 181.351696 
L 531.857572 180.831522 
L 532.156481 180.311347 
L 532.436964 179.791173 
L 532.698672 179.270998 
L 532.941421 178.750824 
L 533.165185 178.23065 
L 533.370097 177.710475 
L 533.556439 177.190301 
L 533.724633 176.670126 
L 533.875239 176.149952 
L 534.008939 175.629777 
L 534.126527 175.109603 
L 534.228905 174.589428 
L 534.317059 174.069254 
L 534.392058 173.549079 
L 534.455033 173.028905 
L 534.507167 172.50873 
L 534.549679 171.988556 
L 534.583815 171.468381 
L 534.610828 170.948207 
L 534.63197 170.428032 
L 534.648477 169.907858 
L 534.661555 169.387683 
L 534.672371 168.867509 
L 534.682039 168.347334 
L 534.691614 167.82716 
L 534.70208 167.306985 
L 534.714339 166.786811 
L 534.729213 166.266636 
L 534.747429 165.746462 
L 534.769621 165.226287 
L 534.796323 164.706113 
L 541.385495 164.706113 
L 541.385495 164.706113 
L 541.412197 165.226287 
L 541.434389 165.746462 
L 541.452605 166.266636 
L 541.467479 166.786811 
L 541.479739 167.306985 
L 541.490204 167.82716 
L 541.499779 168.347334 
L 541.509448 168.867509 
L 541.520263 169.387683 
L 541.533341 169.907858 
L 541.549848 170.428032 
L 541.57099 170.948207 
L 541.598004 171.468381 
L 541.632139 171.988556 
L 541.674652 172.50873 
L 541.726785 173.028905 
L 541.78976 173.549079 
L 541.864759 174.069254 
L 541.952914 174.589428 
L 542.055291 175.109603 
L 542.17288 175.629777 
L 542.306579 176.149952 
L 542.457185 176.670126 
L 542.625379 177.190301 
L 542.811721 177.710475 
L 543.016633 178.23065 
L 543.240397 178.750824 
L 543.483146 179.270998 
L 543.744854 179.791173 
L 544.025338 180.311347 
L 544.324247 180.831522 
L 544.641066 181.351696 
L 544.975114 181.871871 
L 545.325541 182.392045 
L 545.691338 182.91222 
L 546.071334 183.432394 
L 546.464204 183.952569 
L 546.86848 184.472743 
L 547.282552 184.992918 
L 547.704686 185.513092 
L 548.133031 186.033267 
L 548.565632 186.553441 
L 549.000447 187.073616 
L 549.43536 187.59379 
L 549.868197 188.113965 
L 550.296745 188.634139 
L 550.718769 189.154314 
L 551.132031 189.674488 
L 551.534306 190.194663 
L 551.923407 190.714837 
L 552.297198 191.235012 
L 552.653616 191.755186 
L 552.990689 192.275361 
L 553.306553 192.795535 
L 553.599469 193.315709 
L 553.867839 193.835884 
L 554.110218 194.356058 
L 554.325332 194.876233 
L 554.512083 195.396407 
L 554.669563 195.916582 
L 554.797059 196.436756 
L 554.894057 196.956931 
L 554.96025 197.477105 
L 554.995531 197.99728 
L 555 198.517454 
L 554.973953 199.037629 
L 554.917879 199.557803 
L 554.832455 200.077978 
L 554.718529 200.598152 
L 554.577114 201.118327 
L 554.409373 201.638501 
L 554.216601 202.158676 
L 554.000213 202.67885 
L 553.761724 203.199025 
L 553.502733 203.719199 
L 553.224902 204.239374 
L 552.92994 204.759548 
L 552.619584 205.279723 
L 552.295582 205.799897 
L 551.959673 206.320072 
L 551.613573 206.840246 
L 551.258961 207.36042 
L 550.897463 207.880595 
L 550.530638 208.400769 
L 550.159975 208.920944 
L 549.786874 209.441118 
L 549.412646 209.961293 
L 549.038507 210.481467 
L 548.665572 211.001642 
L 548.294852 211.521816 
L 547.927259 212.041991 
L 547.563606 212.562165 
L 547.204604 213.08234 
L 546.850874 213.602514 
L 546.502947 214.122689 
L 546.161275 214.642863 
L 545.826229 215.163038 
L 545.498116 215.683212 
L 545.17718 216.203387 
z
" style="fill:#ff7f0e;fill-opacity:0.3;"/>
   </g>
   <g id="PolyCollection_8">
    <path clip-path="url(#p08837b3bbb)" d="M 616.974709 134.188932 
L 594.479837 134.188932 
L 594.093951 133.692199 
L 593.713562 133.195467 
L 593.339825 132.698734 
L 592.973883 132.202001 
L 592.616869 131.705269 
L 592.269894 131.208536 
L 591.934051 130.711804 
L 591.610406 130.215071 
L 591.299996 129.718339 
L 591.003826 129.221606 
L 590.722868 128.724874 
L 590.458056 128.228141 
L 590.210283 127.731409 
L 589.980402 127.234676 
L 589.76922 126.737944 
L 589.577499 126.241211 
L 589.40595 125.744479 
L 589.255233 125.247746 
L 589.125955 124.751014 
L 589.018665 124.254281 
L 588.933851 123.757549 
L 588.871939 123.260816 
L 588.833286 122.764084 
L 588.818182 122.267351 
L 588.82684 121.770619 
L 588.859396 121.273886 
L 588.915905 120.777154 
L 588.996336 120.280421 
L 589.100568 119.783689 
L 589.228391 119.286956 
L 589.379495 118.790223 
L 589.553477 118.293491 
L 589.74983 117.796758 
L 589.967948 117.300026 
L 590.207125 116.803293 
L 590.46655 116.306561 
L 590.745315 115.809828 
L 591.042411 115.313096 
L 591.356738 114.816363 
L 591.687102 114.319631 
L 592.032227 113.822898 
L 592.390753 113.326166 
L 592.761254 112.829433 
L 593.142237 112.332701 
L 593.532155 111.835968 
L 593.929417 111.339236 
L 594.332398 110.842503 
L 594.739451 110.345771 
L 595.148915 109.849038 
L 595.559133 109.352306 
L 595.968457 108.855573 
L 596.375267 108.358841 
L 596.777977 107.862108 
L 597.175048 107.365376 
L 597.565003 106.868643 
L 597.946431 106.371911 
L 598.318002 105.875178 
L 598.678474 105.378445 
L 599.026702 104.881713 
L 599.361643 104.38498 
L 599.682366 103.888248 
L 599.988053 103.391515 
L 600.278006 102.894783 
L 600.55165 102.39805 
L 600.808531 101.901318 
L 601.048322 101.404585 
L 601.270819 100.907853 
L 601.475939 100.41112 
L 601.663723 99.914388 
L 601.834324 99.417655 
L 601.98801 98.920923 
L 602.125157 98.42419 
L 602.246242 97.927458 
L 602.351834 97.430725 
L 602.442594 96.933993 
L 602.51926 96.43726 
L 602.582643 95.940528 
L 602.633617 95.443795 
L 602.673112 94.947063 
L 602.702101 94.45033 
L 602.721595 93.953598 
L 602.732632 93.456865 
L 602.736267 92.960133 
L 602.733564 92.4634 
L 602.725586 91.966667 
L 602.713388 91.469935 
L 602.698006 90.973202 
L 602.680449 90.47647 
L 602.661695 89.979737 
L 602.642679 89.483005 
L 602.624288 88.986272 
L 602.607354 88.48954 
L 602.592652 87.992807 
L 602.580891 87.496075 
L 602.57271 86.999342 
L 602.568678 86.50261 
L 602.569288 86.005877 
L 602.574959 85.509145 
L 602.586029 85.012412 
L 608.868516 85.012412 
L 608.868516 85.012412 
L 608.879587 85.509145 
L 608.885257 86.005877 
L 608.885868 86.50261 
L 608.881836 86.999342 
L 608.873655 87.496075 
L 608.861893 87.992807 
L 608.847191 88.48954 
L 608.830258 88.986272 
L 608.811866 89.483005 
L 608.79285 89.979737 
L 608.774096 90.47647 
L 608.75654 90.973202 
L 608.741158 91.469935 
L 608.728959 91.966667 
L 608.720982 92.4634 
L 608.718279 92.960133 
L 608.721913 93.456865 
L 608.73295 93.953598 
L 608.752444 94.45033 
L 608.781434 94.947063 
L 608.820928 95.443795 
L 608.871903 95.940528 
L 608.935286 96.43726 
L 609.011952 96.933993 
L 609.102711 97.430725 
L 609.208304 97.927458 
L 609.329388 98.42419 
L 609.466535 98.920923 
L 609.620222 99.417655 
L 609.790823 99.914388 
L 609.978606 100.41112 
L 610.183727 100.907853 
L 610.406223 101.404585 
L 610.646014 101.901318 
L 610.902895 102.39805 
L 611.176539 102.894783 
L 611.466492 103.391515 
L 611.77218 103.888248 
L 612.092902 104.38498 
L 612.427844 104.881713 
L 612.776071 105.378445 
L 613.136544 105.875178 
L 613.508115 106.371911 
L 613.889543 106.868643 
L 614.279497 107.365376 
L 614.676569 107.862108 
L 615.079278 108.358841 
L 615.486088 108.855573 
L 615.895413 109.352306 
L 616.30563 109.849038 
L 616.715095 110.345771 
L 617.122147 110.842503 
L 617.525129 111.339236 
L 617.922391 111.835968 
L 618.312309 112.332701 
L 618.693291 112.829433 
L 619.063792 113.326166 
L 619.422319 113.822898 
L 619.767443 114.319631 
L 620.097807 114.816363 
L 620.412134 115.313096 
L 620.709231 115.809828 
L 620.987995 116.306561 
L 621.247421 116.803293 
L 621.486597 117.300026 
L 621.704716 117.796758 
L 621.901069 118.293491 
L 622.07505 118.790223 
L 622.226155 119.286956 
L 622.353977 119.783689 
L 622.45821 120.280421 
L 622.538641 120.777154 
L 622.59515 121.273886 
L 622.627706 121.770619 
L 622.636364 122.267351 
L 622.621259 122.764084 
L 622.582607 123.260816 
L 622.520694 123.757549 
L 622.43588 124.254281 
L 622.32859 124.751014 
L 622.199312 125.247746 
L 622.048596 125.744479 
L 621.877047 126.241211 
L 621.685325 126.737944 
L 621.474144 127.234676 
L 621.244262 127.731409 
L 620.99649 128.228141 
L 620.731677 128.724874 
L 620.450719 129.221606 
L 620.15455 129.718339 
L 619.84414 130.215071 
L 619.520494 130.711804 
L 619.184651 131.208536 
L 618.837677 131.705269 
L 618.480662 132.202001 
L 618.114721 132.698734 
L 617.740983 133.195467 
L 617.360595 133.692199 
L 616.974709 134.188932 
z
" style="fill:#ff7f0e;fill-opacity:0.3;"/>
   </g>
   <g id="matplotlib.axis_1">
    <g id="xtick_1">
     <g id="line2d_1">
      <defs>
       <path d="M 0 0 
L 0 3.5 
" id="m4754266868" style="stroke:#000000;stroke-width:0.8;"/>
      </defs>
      <g>
       <use style="stroke:#000000;stroke-width:0.8;" x="132.272727" xlink:href="#m4754266868" y="504"/>
      </g>
     </g>
     <g id="text_1">
      <!-- call0 -->
      <defs>
       <path d="M 48.78125 52.59375 
L 48.78125 44.1875 
Q 44.96875 46.296875 41.140625 47.34375 
Q 37.3125 48.390625 33.40625 48.390625 
Q 24.65625 48.390625 19.8125 42.84375 
Q 14.984375 37.3125 14.984375 27.296875 
Q 14.984375 17.28125 19.8125 11.734375 
Q 24.65625 6.203125 33.40625 6.203125 
Q 37.3125 6.203125 41.140625 7.25 
Q 44.96875 8.296875 48.78125 10.40625 
L 48.78125 2.09375 
Q 45.015625 0.34375 40.984375 -0.53125 
Q 36.96875 -1.421875 32.421875 -1.421875 
Q 20.0625 -1.421875 12.78125 6.34375 
Q 5.515625 14.109375 5.515625 27.296875 
Q 5.515625 40.671875 12.859375 48.328125 
Q 20.21875 56 33.015625 56 
Q 37.15625 56 41.109375 55.140625 
Q 45.0625 54.296875 48.78125 52.59375 
" id="DejaVuSans-63"/>
       <path d="M 34.28125 27.484375 
Q 23.390625 27.484375 19.1875 25 
Q 14.984375 22.515625 14.984375 16.5 
Q 14.984375 11.71875 18.140625 8.90625 
Q 21.296875 6.109375 26.703125 6.109375 
Q 34.1875 6.109375 38.703125 11.40625 
Q 43.21875 16.703125 43.21875 25.484375 
L 43.21875 27.484375 
z
M 52.203125 31.203125 
L 52.203125 0 
L 43.21875 0 
L 43.21875 8.296875 
Q 40.140625 3.328125 35.546875 0.953125 
Q 30.953125 -1.421875 24.3125 -1.421875 
Q 15.921875 -1.421875 10.953125 3.296875 
Q 6 8.015625 6 15.921875 
Q 6 25.140625 12.171875 29.828125 
Q 18.359375 34.515625 30.609375 34.515625 
L 43.21875 34.515625 
L 43.21875 35.40625 
Q 43.21875 41.609375 39.140625 45 
Q 35.0625 48.390625 27.6875 48.390625 
Q 23 48.390625 18.546875 47.265625 
Q 14.109375 46.140625 10.015625 43.890625 
L 10.015625 52.203125 
Q 14.9375 54.109375 19.578125 55.046875 
Q 24.21875 56 28.609375 56 
Q 40.484375 56 46.34375 49.84375 
Q 52.203125 43.703125 52.203125 31.203125 
" id="DejaVuSans-61"/>
       <path d="M 9.421875 75.984375 
L 18.40625 75.984375 
L 18.40625 0 
L 9.421875 0 
z
" id="DejaVuSans-6c"/>
       <path d="M 31.78125 66.40625 
Q 24.171875 66.40625 20.328125 58.90625 
Q 16.5 51.421875 16.5 36.375 
Q 16.5 21.390625 20.328125 13.890625 
Q 24.171875 6.390625 31.78125 6.390625 
Q 39.453125 6.390625 43.28125 13.890625 
Q 47.125 21.390625 47.125 36.375 
Q 47.125 51.421875 43.28125 58.90625 
Q 39.453125 66.40625 31.78125 66.40625 
M 31.78125 74.21875 
Q 44.046875 74.21875 50.515625 64.515625 
Q 56.984375 54.828125 56.984375 36.375 
Q 56.984375 17.96875 50.515625 8.265625 
Q 44.046875 -1.421875 31.78125 -1.421875 
Q 19.53125 -1.421875 13.0625 8.265625 
Q 6.59375 17.96875 6.59375 36.375 
Q 6.59375 54.828125 13.0625 64.515625 
Q 19.53125 74.21875 31.78125 74.21875 
" id="DejaVuSans-30"/>
      </defs>
      <g transform="translate(120.500071 518.598438)scale(0.1 -0.1)">
       <use xlink:href="#DejaVuSans-63"/>
       <use x="54.980469" xlink:href="#DejaVuSans-61"/>
       <use x="116.259766" xlink:href="#DejaVuSans-6c"/>
       <use x="144.042969" xlink:href="#DejaVuSans-6c"/>
       <use x="171.826172" xlink:href="#DejaVuSans-30"/>
      </g>
     </g>
    </g>
    <g id="xtick_2">
     <g id="line2d_2">
      <g>
       <use style="stroke:#000000;stroke-width:0.8;" x="199.909091" xlink:href="#m4754266868" y="504"/>
      </g>
     </g>
     <g id="text_2">
      <!-- call1 -->
      <defs>
       <path d="M 12.40625 8.296875 
L 28.515625 8.296875 
L 28.515625 63.921875 
L 10.984375 60.40625 
L 10.984375 69.390625 
L 28.421875 72.90625 
L 38.28125 72.90625 
L 38.28125 8.296875 
L 54.390625 8.296875 
L 54.390625 0 
L 12.40625 0 
z
" id="DejaVuSans-31"/>
      </defs>
      <g transform="translate(188.136435 518.598438)scale(0.1 -0.1)">
       <use xlink:href="#DejaVuSans-63"/>
       <use x="54.980469" xlink:href="#DejaVuSans-61"/>
       <use x="116.259766" xlink:href="#DejaVuSans-6c"/>
       <use x="144.042969" xlink:href="#DejaVuSans-6c"/>
       <use x="171.826172" xlink:href="#DejaVuSans-31"/>
      </g>
     </g>
    </g>
    <g id="xtick_3">
     <g id="line2d_3">
      <g>
       <use style="stroke:#000000;stroke-width:0.8;" x="267.545455" xlink:href="#m4754266868" y="504"/>
      </g>
     </g>
     <g id="text_3">
      <!-- call2 -->
      <defs>
       <path d="M 19.1875 8.296875 
L 53.609375 8.296875 
L 53.609375 0 
L 7.328125 0 
L 7.328125 8.296875 
Q 12.9375 14.109375 22.625 23.890625 
Q 32.328125 33.6875 34.8125 36.53125 
Q 39.546875 41.84375 41.421875 45.53125 
Q 43.3125 49.21875 43.3125 52.78125 
Q 43.3125 58.59375 39.234375 62.25 
Q 35.15625 65.921875 28.609375 65.921875 
Q 23.96875 65.921875 18.8125 64.3125 
Q 13.671875 62.703125 7.8125 59.421875 
L 7.8125 69.390625 
Q 13.765625 71.78125 18.9375 73 
Q 24.125 74.21875 28.421875 74.21875 
Q 39.75 74.21875 46.484375 68.546875 
Q 53.21875 62.890625 53.21875 53.421875 
Q 53.21875 48.921875 51.53125 44.890625 
Q 49.859375 40.875 45.40625 35.40625 
Q 44.1875 33.984375 37.640625 27.21875 
Q 31.109375 20.453125 19.1875 8.296875 
" id="DejaVuSans-32"/>
      </defs>
      <g transform="translate(255.772798 518.598438)scale(0.1 -0.1)">
       <use xlink:href="#DejaVuSans-63"/>
       <use x="54.980469" xlink:href="#DejaVuSans-61"/>
       <use x="116.259766" xlink:href="#DejaVuSans-6c"/>
       <use x="144.042969" xlink:href="#DejaVuSans-6c"/>
       <use x="171.826172" xlink:href="#DejaVuSans-32"/>
      </g>
     </g>
    </g>
    <g id="xtick_4">
     <g id="line2d_4">
      <g>
       <use style="stroke:#000000;stroke-width:0.8;" x="335.181818" xlink:href="#m4754266868" y="504"/>
      </g>
     </g>
     <g id="text_4">
      <!-- call3 -->
      <defs>
       <path d="M 40.578125 39.3125 
Q 47.65625 37.796875 51.625 33 
Q 55.609375 28.21875 55.609375 21.1875 
Q 55.609375 10.40625 48.1875 4.484375 
Q 40.765625 -1.421875 27.09375 -1.421875 
Q 22.515625 -1.421875 17.65625 -0.515625 
Q 12.796875 0.390625 7.625 2.203125 
L 7.625 11.71875 
Q 11.71875 9.328125 16.59375 8.109375 
Q 21.484375 6.890625 26.8125 6.890625 
Q 36.078125 6.890625 40.9375 10.546875 
Q 45.796875 14.203125 45.796875 21.1875 
Q 45.796875 27.640625 41.28125 31.265625 
Q 36.765625 34.90625 28.71875 34.90625 
L 20.21875 34.90625 
L 20.21875 43.015625 
L 29.109375 43.015625 
Q 36.375 43.015625 40.234375 45.921875 
Q 44.09375 48.828125 44.09375 54.296875 
Q 44.09375 59.90625 40.109375 62.90625 
Q 36.140625 65.921875 28.71875 65.921875 
Q 24.65625 65.921875 20.015625 65.03125 
Q 15.375 64.15625 9.8125 62.3125 
L 9.8125 71.09375 
Q 15.4375 72.65625 20.34375 73.4375 
Q 25.25 74.21875 29.59375 74.21875 
Q 40.828125 74.21875 47.359375 69.109375 
Q 53.90625 64.015625 53.90625 55.328125 
Q 53.90625 49.265625 50.4375 45.09375 
Q 46.96875 40.921875 40.578125 39.3125 
" id="DejaVuSans-33"/>
      </defs>
      <g transform="translate(323.409162 518.598438)scale(0.1 -0.1)">
       <use xlink:href="#DejaVuSans-63"/>
       <use x="54.980469" xlink:href="#DejaVuSans-61"/>
       <use x="116.259766" xlink:href="#DejaVuSans-6c"/>
       <use x="144.042969" xlink:href="#DejaVuSans-6c"/>
       <use x="171.826172" xlink:href="#DejaVuSans-33"/>
      </g>
     </g>
    </g>
    <g id="xtick_5">
     <g id="line2d_5">
      <g>
       <use style="stroke:#000000;stroke-width:0.8;" x="402.818182" xlink:href="#m4754266868" y="504"/>
      </g>
     </g>
     <g id="text_5">
      <!-- call4 -->
      <defs>
       <path d="M 37.796875 64.3125 
L 12.890625 25.390625 
L 37.796875 25.390625 
z
M 35.203125 72.90625 
L 47.609375 72.90625 
L 47.609375 25.390625 
L 58.015625 25.390625 
L 58.015625 17.1875 
L 47.609375 17.1875 
L 47.609375 0 
L 37.796875 0 
L 37.796875 17.1875 
L 4.890625 17.1875 
L 4.890625 26.703125 
z
" id="DejaVuSans-34"/>
      </defs>
      <g transform="translate(391.045526 518.598438)scale(0.1 -0.1)">
       <use xlink:href="#DejaVuSans-63"/>
       <use x="54.980469" xlink:href="#DejaVuSans-61"/>
       <use x="116.259766" xlink:href="#DejaVuSans-6c"/>
       <use x="144.042969" xlink:href="#DejaVuSans-6c"/>
       <use x="171.826172" xlink:href="#DejaVuSans-34"/>
      </g>
     </g>
    </g>
    <g id="xtick_6">
     <g id="line2d_6">
      <g>
       <use style="stroke:#000000;stroke-width:0.8;" x="470.454545" xlink:href="#m4754266868" y="504"/>
      </g>
     </g>
     <g id="text_6">
      <!-- call5 -->
      <defs>
       <path d="M 10.796875 72.90625 
L 49.515625 72.90625 
L 49.515625 64.59375 
L 19.828125 64.59375 
L 19.828125 46.734375 
Q 21.96875 47.46875 24.109375 47.828125 
Q 26.265625 48.1875 28.421875 48.1875 
Q 40.625 48.1875 47.75 41.5 
Q 54.890625 34.8125 54.890625 23.390625 
Q 54.890625 11.625 47.5625 5.09375 
Q 40.234375 -1.421875 26.90625 -1.421875 
Q 22.3125 -1.421875 17.546875 -0.640625 
Q 12.796875 0.140625 7.71875 1.703125 
L 7.71875 11.625 
Q 12.109375 9.234375 16.796875 8.0625 
Q 21.484375 6.890625 26.703125 6.890625 
Q 35.15625 6.890625 40.078125 11.328125 
Q 45.015625 15.765625 45.015625 23.390625 
Q 45.015625 31 40.078125 35.4375 
Q 35.15625 39.890625 26.703125 39.890625 
Q 22.75 39.890625 18.8125 39.015625 
Q 14.890625 38.140625 10.796875 36.28125 
z
" id="DejaVuSans-35"/>
      </defs>
      <g transform="translate(458.681889 518.598438)scale(0.1 -0.1)">
       <use xlink:href="#DejaVuSans-63"/>
       <use x="54.980469" xlink:href="#DejaVuSans-61"/>
       <use x="116.259766" xlink:href="#DejaVuSans-6c"/>
       <use x="144.042969" xlink:href="#DejaVuSans-6c"/>
       <use x="171.826172" xlink:href="#DejaVuSans-35"/>
      </g>
     </g>
    </g>
    <g id="xtick_7">
     <g id="line2d_7">
      <g>
       <use style="stroke:#000000;stroke-width:0.8;" x="538.090909" xlink:href="#m4754266868" y="504"/>
      </g>
     </g>
     <g id="text_7">
      <!-- call6 -->
      <defs>
       <path d="M 33.015625 40.375 
Q 26.375 40.375 22.484375 35.828125 
Q 18.609375 31.296875 18.609375 23.390625 
Q 18.609375 15.53125 22.484375 10.953125 
Q 26.375 6.390625 33.015625 6.390625 
Q 39.65625 6.390625 43.53125 10.953125 
Q 47.40625 15.53125 47.40625 23.390625 
Q 47.40625 31.296875 43.53125 35.828125 
Q 39.65625 40.375 33.015625 40.375 
M 52.59375 71.296875 
L 52.59375 62.3125 
Q 48.875 64.0625 45.09375 64.984375 
Q 41.3125 65.921875 37.59375 65.921875 
Q 27.828125 65.921875 22.671875 59.328125 
Q 17.53125 52.734375 16.796875 39.40625 
Q 19.671875 43.65625 24.015625 45.921875 
Q 28.375 48.1875 33.59375 48.1875 
Q 44.578125 48.1875 50.953125 41.515625 
Q 57.328125 34.859375 57.328125 23.390625 
Q 57.328125 12.15625 50.6875 5.359375 
Q 44.046875 -1.421875 33.015625 -1.421875 
Q 20.359375 -1.421875 13.671875 8.265625 
Q 6.984375 17.96875 6.984375 36.375 
Q 6.984375 53.65625 15.1875 63.9375 
Q 23.390625 74.21875 37.203125 74.21875 
Q 40.921875 74.21875 44.703125 73.484375 
Q 48.484375 72.75 52.59375 71.296875 
" id="DejaVuSans-36"/>
      </defs>
      <g transform="translate(526.318253 518.598438)scale(0.1 -0.1)">
       <use xlink:href="#DejaVuSans-63"/>
       <use x="54.980469" xlink:href="#DejaVuSans-61"/>
       <use x="116.259766" xlink:href="#DejaVuSans-6c"/>
       <use x="144.042969" xlink:href="#DejaVuSans-6c"/>
       <use x="171.826172" xlink:href="#DejaVuSans-36"/>
      </g>
     </g>
    </g>
    <g id="xtick_8">
     <g id="line2d_8">
      <g>
       <use style="stroke:#000000;stroke-width:0.8;" x="605.727273" xlink:href="#m4754266868" y="504"/>
      </g>
     </g>
     <g id="text_8">
      <!-- call7 -->
      <defs>
       <path d="M 8.203125 72.90625 
L 55.078125 72.90625 
L 55.078125 68.703125 
L 28.609375 0 
L 18.3125 0 
L 43.21875 64.59375 
L 8.203125 64.59375 
z
" id="DejaVuSans-37"/>
      </defs>
      <g transform="translate(593.954616 518.598438)scale(0.1 -0.1)">
       <use xlink:href="#DejaVuSans-63"/>
       <use x="54.980469" xlink:href="#DejaVuSans-61"/>
       <use x="116.259766" xlink:href="#DejaVuSans-6c"/>
       <use x="144.042969" xlink:href="#DejaVuSans-6c"/>
       <use x="171.826172" xlink:href="#DejaVuSans-37"/>
      </g>
     </g>
    </g>
   </g>
   <g id="matplotlib.axis_2">
    <g id="ytick_1">
     <g id="line2d_9">
      <defs>
       <path d="M 0 0 
L -3.5 0 
" id="m2654d0f666" style="stroke:#000000;stroke-width:0.8;"/>
      </defs>
      <g>
       <use style="stroke:#000000;stroke-width:0.8;" x="90" xlink:href="#m2654d0f666" y="504"/>
      </g>
     </g>
     <g id="text_9">
      <!-- 0 -->
      <g transform="translate(76.6375 507.799219)scale(0.1 -0.1)">
       <use xlink:href="#DejaVuSans-30"/>
      </g>
     </g>
    </g>
    <g id="ytick_2">
     <g id="line2d_10">
      <g>
       <use style="stroke:#000000;stroke-width:0.8;" x="90" xlink:href="#m2654d0f666" y="429.535703"/>
      </g>
     </g>
     <g id="text_10">
      <!-- 1 -->
      <g transform="translate(76.6375 433.334922)scale(0.1 -0.1)">
       <use xlink:href="#DejaVuSans-31"/>
      </g>
     </g>
    </g>
    <g id="ytick_3">
     <g id="line2d_11">
      <g>
       <use style="stroke:#000000;stroke-width:0.8;" x="90" xlink:href="#m2654d0f666" y="355.071407"/>
      </g>
     </g>
     <g id="text_11">
      <!-- 2 -->
      <g transform="translate(76.6375 358.870625)scale(0.1 -0.1)">
       <use xlink:href="#DejaVuSans-32"/>
      </g>
     </g>
    </g>
    <g id="ytick_4">
     <g id="line2d_12">
      <g>
       <use style="stroke:#000000;stroke-width:0.8;" x="90" xlink:href="#m2654d0f666" y="280.60711"/>
      </g>
     </g>
     <g id="text_12">
      <!-- 3 -->
      <g transform="translate(76.6375 284.406329)scale(0.1 -0.1)">
       <use xlink:href="#DejaVuSans-33"/>
      </g>
     </g>
    </g>
    <g id="ytick_5">
     <g id="line2d_13">
      <g>
       <use style="stroke:#000000;stroke-width:0.8;" x="90" xlink:href="#m2654d0f666" y="206.142813"/>
      </g>
     </g>
     <g id="text_13">
      <!-- 4 -->
      <g transform="translate(76.6375 209.942032)scale(0.1 -0.1)">
       <use xlink:href="#DejaVuSans-34"/>
      </g>
     </g>
    </g>
    <g id="ytick_6">
     <g id="line2d_14">
      <g>
       <use style="stroke:#000000;stroke-width:0.8;" x="90" xlink:href="#m2654d0f666" y="131.678517"/>
      </g>
     </g>
     <g id="text_14">
      <!-- 5 -->
      <g transform="translate(76.6375 135.477735)scale(0.1 -0.1)">
       <use xlink:href="#DejaVuSans-35"/>
      </g>
     </g>
    </g>
   </g>
   <g id="LineCollection_1">
    <path clip-path="url(#p08837b3bbb)" d="M 123.818182 103.405168 
L 140.727273 103.405168 
" style="fill:none;stroke:#ff7f0e;stroke-width:1.5;"/>
    <path clip-path="url(#p08837b3bbb)" d="M 191.454545 168.201318 
L 208.363636 168.201318 
" style="fill:none;stroke:#ff7f0e;stroke-width:1.5;"/>
    <path clip-path="url(#p08837b3bbb)" d="M 259.090909 102.204431 
L 276 102.204431 
" style="fill:none;stroke:#ff7f0e;stroke-width:1.5;"/>
    <path clip-path="url(#p08837b3bbb)" d="M 326.727273 82.449128 
L 343.636364 82.449128 
" style="fill:none;stroke:#ff7f0e;stroke-width:1.5;"/>
    <path clip-path="url(#p08837b3bbb)" d="M 394.363636 181.160861 
L 411.272727 181.160861 
" style="fill:none;stroke:#ff7f0e;stroke-width:1.5;"/>
    <path clip-path="url(#p08837b3bbb)" d="M 462 77.192246 
L 478.909091 77.192246 
" style="fill:none;stroke:#ff7f0e;stroke-width:1.5;"/>
    <path clip-path="url(#p08837b3bbb)" d="M 529.636364 164.706113 
L 546.545455 164.706113 
" style="fill:none;stroke:#ff7f0e;stroke-width:1.5;"/>
    <path clip-path="url(#p08837b3bbb)" d="M 597.272727 85.012412 
L 614.181818 85.012412 
" style="fill:none;stroke:#ff7f0e;stroke-width:1.5;"/>
   </g>
   <g id="LineCollection_2">
    <path clip-path="url(#p08837b3bbb)" d="M 123.818182 133.974177 
L 140.727273 133.974177 
" style="fill:none;stroke:#ff7f0e;stroke-width:1.5;"/>
    <path clip-path="url(#p08837b3bbb)" d="M 191.454545 238.637171 
L 208.363636 238.637171 
" style="fill:none;stroke:#ff7f0e;stroke-width:1.5;"/>
    <path clip-path="url(#p08837b3bbb)" d="M 259.090909 126.723365 
L 276 126.723365 
" style="fill:none;stroke:#ff7f0e;stroke-width:1.5;"/>
    <path clip-path="url(#p08837b3bbb)" d="M 326.727273 137.635512 
L 343.636364 137.635512 
" style="fill:none;stroke:#ff7f0e;stroke-width:1.5;"/>
    <path clip-path="url(#p08837b3bbb)" d="M 394.363636 222.188306 
L 411.272727 222.188306 
" style="fill:none;stroke:#ff7f0e;stroke-width:1.5;"/>
    <path clip-path="url(#p08837b3bbb)" d="M 462 140.094769 
L 478.909091 140.094769 
" style="fill:none;stroke:#ff7f0e;stroke-width:1.5;"/>
    <path clip-path="url(#p08837b3bbb)" d="M 529.636364 216.203387 
L 546.545455 216.203387 
" style="fill:none;stroke:#ff7f0e;stroke-width:1.5;"/>
    <path clip-path="url(#p08837b3bbb)" d="M 597.272727 134.188932 
L 614.181818 134.188932 
" style="fill:none;stroke:#ff7f0e;stroke-width:1.5;"/>
   </g>
   <g id="LineCollection_3">
    <path clip-path="url(#p08837b3bbb)" d="M 132.272727 133.974177 
L 132.272727 103.405168 
" style="fill:none;stroke:#ff7f0e;stroke-width:1.5;"/>
    <path clip-path="url(#p08837b3bbb)" d="M 199.909091 238.637171 
L 199.909091 168.201318 
" style="fill:none;stroke:#ff7f0e;stroke-width:1.5;"/>
    <path clip-path="url(#p08837b3bbb)" d="M 267.545455 126.723365 
L 267.545455 102.204431 
" style="fill:none;stroke:#ff7f0e;stroke-width:1.5;"/>
    <path clip-path="url(#p08837b3bbb)" d="M 335.181818 137.635512 
L 335.181818 82.449128 
" style="fill:none;stroke:#ff7f0e;stroke-width:1.5;"/>
    <path clip-path="url(#p08837b3bbb)" d="M 402.818182 222.188306 
L 402.818182 181.160861 
" style="fill:none;stroke:#ff7f0e;stroke-width:1.5;"/>
    <path clip-path="url(#p08837b3bbb)" d="M 470.454545 140.094769 
L 470.454545 77.192246 
" style="fill:none;stroke:#ff7f0e;stroke-width:1.5;"/>
    <path clip-path="url(#p08837b3bbb)" d="M 538.090909 216.203387 
L 538.090909 164.706113 
" style="fill:none;stroke:#ff7f0e;stroke-width:1.5;"/>
    <path clip-path="url(#p08837b3bbb)" d="M 605.727273 134.188932 
L 605.727273 85.012412 
" style="fill:none;stroke:#ff7f0e;stroke-width:1.5;"/>
   </g>
   <g id="line2d_15">
    <path clip-path="url(#p08837b3bbb)" d="M 132.272727 128.63814 
L 199.909091 202.168579 
L 267.545455 120.641679 
L 335.181818 116.560924 
L 402.818182 202.509291 
L 470.454545 116.971558 
L 538.090909 198.911437 
L 605.727273 119.52088 
" style="fill:none;stroke:#1f77b4;stroke-linecap:square;stroke-width:1.5;"/>
    <defs>
     <path d="M 0 3 
C 0.795609 3 1.55874 2.683901 2.12132 2.12132 
C 2.683901 1.55874 3 0.795609 3 0 
C 3 -0.795609 2.683901 -1.55874 2.12132 -2.12132 
C 1.55874 -2.683901 0.795609 -3 0 -3 
C -0.795609 -3 -1.55874 -2.683901 -2.12132 -2.12132 
C -2.683901 -1.55874 -3 -0.795609 -3 0 
C -3 0.795609 -2.683901 1.55874 -2.12132 2.12132 
C -1.55874 2.683901 -0.795609 3 0 3 
z
" id="m98fe17aedf" style="stroke:#1f77b4;"/>
    </defs>
    <g clip-path="url(#p08837b3bbb)">
     <use style="fill:#1f77b4;stroke:#1f77b4;" x="132.272727" xlink:href="#m98fe17aedf" y="128.63814"/>
     <use style="fill:#1f77b4;stroke:#1f77b4;" x="199.909091" xlink:href="#m98fe17aedf" y="202.168579"/>
     <use style="fill:#1f77b4;stroke:#1f77b4;" x="267.545455" xlink:href="#m98fe17aedf" y="120.641679"/>
     <use style="fill:#1f77b4;stroke:#1f77b4;" x="335.181818" xlink:href="#m98fe17aedf" y="116.560924"/>
     <use style="fill:#1f77b4;stroke:#1f77b4;" x="402.818182" xlink:href="#m98fe17aedf" y="202.509291"/>
     <use style="fill:#1f77b4;stroke:#1f77b4;" x="470.454545" xlink:href="#m98fe17aedf" y="116.971558"/>
     <use style="fill:#1f77b4;stroke:#1f77b4;" x="538.090909" xlink:href="#m98fe17aedf" y="198.911437"/>
     <use style="fill:#1f77b4;stroke:#1f77b4;" x="605.727273" xlink:href="#m98fe17aedf" y="119.52088"/>
    </g>
   </g>
   <g id="patch_3">
    <path d="M 90 504 
L 90 69.12 
" style="fill:none;stroke:#000000;stroke-linecap:square;stroke-linejoin:miter;stroke-width:0.8;"/>
   </g>
   <g id="patch_4">
    <path d="M 648 504 
L 648 69.12 
" style="fill:none;stroke:#000000;stroke-linecap:square;stroke-linejoin:miter;stroke-width:0.8;"/>
   </g>
   <g id="patch_5">
    <path d="M 90 504 
L 648 504 
" style="fill:none;stroke:#000000;stroke-linecap:square;stroke-linejoin:miter;stroke-width:0.8;"/>
   </g>
   <g id="patch_6">
    <path d="M 90 69.12 
L 648 69.12 
" style="fill:none;stroke:#000000;stroke-linecap:square;stroke-linejoin:miter;stroke-width:0.8;"/>
   </g>
  </g>
 </g>
 <defs>
  <clipPath id="p08837b3bbb">
   <rect height="434.88" width="558" x="90" y="69.12"/>
  </clipPath>
 </defs>
</svg>
