<?xml version="1.0" encoding="utf-8" standalone="no"?>
<!DOCTYPE svg PUBLIC "-//W3C//DTD SVG 1.1//EN"
  "http://www.w3.org/Graphics/SVG/1.1/DTD/svg11.dtd">
<!-- Created with matplotlib (http://matplotlib.org/) -->
<svg height="576pt" version="1.1" viewBox="0 0 720 576" width="720pt" xmlns="http://www.w3.org/2000/svg" xmlns:xlink="http://www.w3.org/1999/xlink">
 <defs>
  <style type="text/css">
*{stroke-linecap:butt;stroke-linejoin:round;}
  </style>
 </defs>
 <g id="figure_1">
  <g id="patch_1">
   <path d="M 0 576 
L 720 576 
L 720 0 
L 0 0 
z
" style="fill:#ffffff;"/>
  </g>
  <g id="axes_1">
   <g id="patch_2">
    <path d="M 90 504 
L 648 504 
L 648 69.12 
L 90 69.12 
z
" style="fill:#ffffff;"/>
   </g>
   <g id="PolyCollection_1">
    <path clip-path="url(#p4c52fa4a76)" d="M 144.853773 322.096471 
L 115.713072 322.096471 
L 115.62688 321.613664 
L 115.552762 321.130858 
L 115.490803 320.648051 
L 115.441048 320.165244 
L 115.403505 319.682437 
L 115.378143 319.19963 
L 115.36489 318.716823 
L 115.363636 318.234016 
L 115.374235 317.751209 
L 115.396499 317.268402 
L 115.430205 316.785595 
L 115.475093 316.302788 
L 115.53087 315.819982 
L 115.597206 315.337175 
L 115.673741 314.854368 
L 115.760082 314.371561 
L 115.85581 313.888754 
L 115.960475 313.405947 
L 116.073606 312.92314 
L 116.194704 312.440333 
L 116.323255 311.957526 
L 116.458721 311.474719 
L 116.60055 310.991913 
L 116.748178 310.509106 
L 116.901027 310.026299 
L 117.058512 309.543492 
L 117.220041 309.060685 
L 117.38502 308.577878 
L 117.552851 308.095071 
L 117.72294 307.612264 
L 117.894698 307.129457 
L 118.067541 306.64665 
L 118.240894 306.163843 
L 118.414194 305.681037 
L 118.586892 305.19823 
L 118.758456 304.715423 
L 118.92837 304.232616 
L 119.096141 303.749809 
L 119.261294 303.267002 
L 119.423384 302.784195 
L 119.581985 302.301388 
L 119.736704 301.818581 
L 119.887172 301.335774 
L 120.033053 300.852967 
L 120.174039 300.370161 
L 120.309857 299.887354 
L 120.440264 299.404547 
L 120.565051 298.92174 
L 120.684042 298.438933 
L 120.797096 297.956126 
L 120.904105 297.473319 
L 121.004994 296.990512 
L 121.099724 296.507705 
L 121.188288 296.024898 
L 121.27071 295.542091 
L 121.34705 295.059285 
L 121.417396 294.576478 
L 121.481868 294.093671 
L 121.540613 293.610864 
L 121.593809 293.128057 
L 121.641658 292.64525 
L 121.684389 292.162443 
L 121.722253 291.679636 
L 121.755523 291.196829 
L 121.784495 290.714022 
L 121.80948 290.231216 
L 121.830807 289.748409 
L 121.848819 289.265602 
L 121.863872 288.782795 
L 121.876334 288.299988 
L 121.886578 287.817181 
L 121.894987 287.334374 
L 121.901946 286.851567 
L 121.907845 286.36876 
L 121.913072 285.885953 
L 121.918014 285.403146 
L 121.923057 284.92034 
L 121.928577 284.437533 
L 121.934945 283.954726 
L 121.942526 283.471919 
L 121.951668 282.989112 
L 121.962712 282.506305 
L 121.975983 282.023498 
L 121.99179 281.540691 
L 122.010427 281.057884 
L 122.032169 280.575077 
L 122.057272 280.09227 
L 122.085973 279.609464 
L 122.118487 279.126657 
L 122.155008 278.64385 
L 122.195709 278.161043 
L 122.240738 277.678236 
L 122.290223 277.195429 
L 122.344266 276.712622 
L 122.402947 276.229815 
L 122.466323 275.747008 
L 122.534428 275.264201 
L 122.607271 274.781394 
L 122.684842 274.298588 
L 137.882003 274.298588 
L 137.882003 274.298588 
L 137.959574 274.781394 
L 138.032417 275.264201 
L 138.100521 275.747008 
L 138.163898 276.229815 
L 138.222579 276.712622 
L 138.276622 277.195429 
L 138.326107 277.678236 
L 138.371136 278.161043 
L 138.411837 278.64385 
L 138.448358 279.126657 
L 138.480872 279.609464 
L 138.509573 280.09227 
L 138.534676 280.575077 
L 138.556418 281.057884 
L 138.575054 281.540691 
L 138.590862 282.023498 
L 138.604132 282.506305 
L 138.615177 282.989112 
L 138.624319 283.471919 
L 138.631899 283.954726 
L 138.638268 284.437533 
L 138.643788 284.92034 
L 138.64883 285.403146 
L 138.653773 285.885953 
L 138.659 286.36876 
L 138.664899 286.851567 
L 138.671858 287.334374 
L 138.680267 287.817181 
L 138.690511 288.299988 
L 138.702973 288.782795 
L 138.718026 289.265602 
L 138.736038 289.748409 
L 138.757365 290.231216 
L 138.78235 290.714022 
L 138.811321 291.196829 
L 138.844592 291.679636 
L 138.882456 292.162443 
L 138.925187 292.64525 
L 138.973036 293.128057 
L 139.026232 293.610864 
L 139.084977 294.093671 
L 139.149448 294.576478 
L 139.219795 295.059285 
L 139.296135 295.542091 
L 139.378557 296.024898 
L 139.467121 296.507705 
L 139.561851 296.990512 
L 139.66274 297.473319 
L 139.769749 297.956126 
L 139.882803 298.438933 
L 140.001794 298.92174 
L 140.126581 299.404547 
L 140.256988 299.887354 
L 140.392805 300.370161 
L 140.533792 300.852967 
L 140.679673 301.335774 
L 140.830141 301.818581 
L 140.98486 302.301388 
L 141.143461 302.784195 
L 141.30555 303.267002 
L 141.470704 303.749809 
L 141.638475 304.232616 
L 141.808389 304.715423 
L 141.979952 305.19823 
L 142.152651 305.681037 
L 142.325951 306.163843 
L 142.499304 306.64665 
L 142.672147 307.129457 
L 142.843904 307.612264 
L 143.013994 308.095071 
L 143.181825 308.577878 
L 143.346804 309.060685 
L 143.508333 309.543492 
L 143.665818 310.026299 
L 143.818667 310.509106 
L 143.966295 310.991913 
L 144.108124 311.474719 
L 144.24359 311.957526 
L 144.37214 312.440333 
L 144.493239 312.92314 
L 144.60637 313.405947 
L 144.711035 313.888754 
L 144.806763 314.371561 
L 144.893104 314.854368 
L 144.969639 315.337175 
L 145.035975 315.819982 
L 145.091751 316.302788 
L 145.13664 316.785595 
L 145.170346 317.268402 
L 145.19261 317.751209 
L 145.203209 318.234016 
L 145.201955 318.716823 
L 145.188702 319.19963 
L 145.16334 319.682437 
L 145.125797 320.165244 
L 145.076042 320.648051 
L 145.014083 321.130858 
L 144.939965 321.613664 
L 144.853773 322.096471 
z
" style="fill:#ff7f0e;fill-opacity:0.3;"/>
   </g>
   <g id="PolyCollection_2">
    <path clip-path="url(#p4c52fa4a76)" d="M 197.254144 283.180023 
L 182.670989 283.180023 
L 182.533609 283.11617 
L 182.399493 283.052318 
L 182.268724 282.988466 
L 182.141362 282.924614 
L 182.017444 282.860762 
L 181.896982 282.79691 
L 181.779968 282.733058 
L 181.666366 282.669206 
L 181.556122 282.605354 
L 181.449152 282.541502 
L 181.345356 282.47765 
L 181.244606 282.413797 
L 181.146757 282.349945 
L 181.051641 282.286093 
L 180.959071 282.222241 
L 180.868843 282.158389 
L 180.780736 282.094537 
L 180.694512 282.030685 
L 180.609922 281.966833 
L 180.526703 281.902981 
L 180.444585 281.839129 
L 180.363289 281.775276 
L 180.282528 281.711424 
L 180.202017 281.647572 
L 180.121464 281.58372 
L 180.040583 281.519868 
L 179.959089 281.456016 
L 179.876704 281.392164 
L 179.793157 281.328312 
L 179.70819 281.26446 
L 179.621556 281.200608 
L 179.533025 281.136756 
L 179.442383 281.072903 
L 179.349438 281.009051 
L 179.254019 280.945199 
L 179.155977 280.881347 
L 179.055192 280.817495 
L 178.95157 280.753643 
L 178.845046 280.689791 
L 178.735584 280.625939 
L 178.623184 280.562087 
L 178.507874 280.498235 
L 178.389719 280.434383 
L 178.268816 280.37053 
L 178.145297 280.306678 
L 178.01933 280.242826 
L 177.891116 280.178974 
L 177.760891 280.115122 
L 177.628927 280.05127 
L 177.495525 279.987418 
L 177.361022 279.923566 
L 177.225784 279.859714 
L 177.090206 279.795862 
L 176.954713 279.732009 
L 176.819753 279.668157 
L 176.685801 279.604305 
L 176.55335 279.540453 
L 176.422915 279.476601 
L 176.295026 279.412749 
L 176.170228 279.348897 
L 176.049075 279.285045 
L 175.932129 279.221193 
L 175.819958 279.157341 
L 175.71313 279.093489 
L 175.612213 279.029636 
L 175.517768 278.965784 
L 175.430348 278.901932 
L 175.350495 278.83808 
L 175.278737 278.774228 
L 175.215582 278.710376 
L 175.161517 278.646524 
L 175.117007 278.582672 
L 175.082487 278.51882 
L 175.058366 278.454968 
L 175.045017 278.391116 
L 175.042781 278.327263 
L 175.05196 278.263411 
L 175.072818 278.199559 
L 175.105579 278.135707 
L 175.150424 278.071855 
L 175.207491 278.008003 
L 175.276874 277.944151 
L 175.35862 277.880299 
L 175.452733 277.816447 
L 175.559169 277.752595 
L 175.677839 277.688742 
L 175.808608 277.62489 
L 175.951299 277.561038 
L 176.105686 277.497186 
L 176.271504 277.433334 
L 176.448446 277.369482 
L 176.636164 277.30563 
L 176.834272 277.241778 
L 177.04235 277.177926 
L 177.259943 277.114074 
L 177.486563 277.050222 
L 177.721696 276.986369 
L 177.964801 276.922517 
L 178.215313 276.858665 
L 201.70982 276.858665 
L 201.70982 276.858665 
L 201.960333 276.922517 
L 202.203437 276.986369 
L 202.438571 277.050222 
L 202.665191 277.114074 
L 202.882783 277.177926 
L 203.090861 277.241778 
L 203.28897 277.30563 
L 203.476688 277.369482 
L 203.65363 277.433334 
L 203.819448 277.497186 
L 203.973835 277.561038 
L 204.116525 277.62489 
L 204.247295 277.688742 
L 204.365965 277.752595 
L 204.472401 277.816447 
L 204.566514 277.880299 
L 204.64826 277.944151 
L 204.717643 278.008003 
L 204.77471 278.071855 
L 204.819555 278.135707 
L 204.852316 278.199559 
L 204.873174 278.263411 
L 204.882353 278.327263 
L 204.880116 278.391116 
L 204.866768 278.454968 
L 204.842646 278.51882 
L 204.808127 278.582672 
L 204.763617 278.646524 
L 204.709552 278.710376 
L 204.646397 278.774228 
L 204.574638 278.83808 
L 204.494786 278.901932 
L 204.407366 278.965784 
L 204.312921 279.029636 
L 204.212003 279.093489 
L 204.105176 279.157341 
L 203.993005 279.221193 
L 203.876059 279.285045 
L 203.754906 279.348897 
L 203.630107 279.412749 
L 203.502219 279.476601 
L 203.371784 279.540453 
L 203.239333 279.604305 
L 203.10538 279.668157 
L 202.970421 279.732009 
L 202.834927 279.795862 
L 202.69935 279.859714 
L 202.564111 279.923566 
L 202.429608 279.987418 
L 202.296207 280.05127 
L 202.164242 280.115122 
L 202.034018 280.178974 
L 201.905804 280.242826 
L 201.779837 280.306678 
L 201.656318 280.37053 
L 201.535415 280.434383 
L 201.417259 280.498235 
L 201.30195 280.562087 
L 201.189549 280.625939 
L 201.080088 280.689791 
L 200.973564 280.753643 
L 200.869941 280.817495 
L 200.769156 280.881347 
L 200.671115 280.945199 
L 200.575695 281.009051 
L 200.48275 281.072903 
L 200.392109 281.136756 
L 200.303577 281.200608 
L 200.216944 281.26446 
L 200.131976 281.328312 
L 200.04843 281.392164 
L 199.966044 281.456016 
L 199.88455 281.519868 
L 199.803669 281.58372 
L 199.723117 281.647572 
L 199.642605 281.711424 
L 199.561845 281.775276 
L 199.480548 281.839129 
L 199.39843 281.902981 
L 199.315212 281.966833 
L 199.230622 282.030685 
L 199.144398 282.094537 
L 199.05629 282.158389 
L 198.966062 282.222241 
L 198.873493 282.286093 
L 198.778377 282.349945 
L 198.680528 282.413797 
L 198.579778 282.47765 
L 198.475981 282.541502 
L 198.369012 282.605354 
L 198.258767 282.669206 
L 198.145166 282.733058 
L 198.028152 282.79691 
L 197.90769 282.860762 
L 197.783772 282.924614 
L 197.65641 282.988466 
L 197.525641 283.052318 
L 197.391525 283.11617 
L 197.254144 283.180023 
z
" style="fill:#ff7f0e;fill-opacity:0.3;"/>
   </g>
   <g id="PolyCollection_3">
    <path clip-path="url(#p4c52fa4a76)" d="M 262.991582 337.583881 
L 236.291841 337.583881 
L 236.165755 337.029067 
L 236.04878 336.474254 
L 235.940969 335.91944 
L 235.842341 335.364627 
L 235.752876 334.809813 
L 235.672518 334.254999 
L 235.601176 333.700186 
L 235.538721 333.145372 
L 235.484989 332.590559 
L 235.43978 332.035745 
L 235.402862 331.480932 
L 235.373966 330.926118 
L 235.352796 330.371305 
L 235.339021 329.816491 
L 235.332284 329.261678 
L 235.332199 328.706864 
L 235.338358 328.15205 
L 235.350327 327.597237 
L 235.367653 327.042423 
L 235.389863 326.48761 
L 235.416471 325.932796 
L 235.446976 325.377983 
L 235.480867 324.823169 
L 235.517625 324.268356 
L 235.556727 323.713542 
L 235.597648 323.158728 
L 235.639864 322.603915 
L 235.682854 322.049101 
L 235.726106 321.494288 
L 235.769115 320.939474 
L 235.811392 320.384661 
L 235.852461 319.829847 
L 235.891864 319.275034 
L 235.929166 318.72022 
L 235.963954 318.165407 
L 235.995841 317.610593 
L 236.024468 317.055779 
L 236.049506 316.500966 
L 236.070658 315.946152 
L 236.087662 315.391339 
L 236.100291 314.836525 
L 236.108353 314.281712 
L 236.111698 313.726898 
L 236.110212 313.172085 
L 236.103821 312.617271 
L 236.092493 312.062457 
L 236.076235 311.507644 
L 236.055096 310.95283 
L 236.029165 310.398017 
L 235.99857 309.843203 
L 235.963479 309.28839 
L 235.924101 308.733576 
L 235.880679 308.178763 
L 235.833493 307.623949 
L 235.782859 307.069136 
L 235.729124 306.514322 
L 235.672667 305.959508 
L 235.613897 305.404695 
L 235.553246 304.849881 
L 235.491173 304.295068 
L 235.428158 303.740254 
L 235.364699 303.185441 
L 235.301311 302.630627 
L 235.238521 302.075814 
L 235.176866 301.521 
L 235.116893 300.966186 
L 235.059149 300.411373 
L 235.004184 299.856559 
L 234.952547 299.301746 
L 234.90478 298.746932 
L 234.861417 298.192119 
L 234.822982 297.637305 
L 234.789985 297.082492 
L 234.762918 296.527678 
L 234.742256 295.972865 
L 234.728449 295.418051 
L 234.721925 294.863237 
L 234.723085 294.308424 
L 234.732302 293.75361 
L 234.749916 293.198797 
L 234.776237 292.643983 
L 234.811542 292.08917 
L 234.856072 291.534356 
L 234.91003 290.979543 
L 234.973585 290.424729 
L 235.046866 289.869915 
L 235.129967 289.315102 
L 235.22294 288.760288 
L 235.3258 288.205475 
L 235.438526 287.650661 
L 235.561056 287.095848 
L 235.693292 286.541034 
L 235.835101 285.986221 
L 235.986312 285.431407 
L 236.146723 284.876594 
L 236.316097 284.32178 
L 236.494165 283.766966 
L 236.68063 283.212153 
L 236.875167 282.657339 
L 262.408255 282.657339 
L 262.408255 282.657339 
L 262.602792 283.212153 
L 262.789257 283.766966 
L 262.967326 284.32178 
L 263.136699 284.876594 
L 263.29711 285.431407 
L 263.448322 285.986221 
L 263.590131 286.541034 
L 263.722367 287.095848 
L 263.844897 287.650661 
L 263.957622 288.205475 
L 264.060483 288.760288 
L 264.153456 289.315102 
L 264.236556 289.869915 
L 264.309838 290.424729 
L 264.373393 290.979543 
L 264.427351 291.534356 
L 264.47188 292.08917 
L 264.507185 292.643983 
L 264.533507 293.198797 
L 264.551121 293.75361 
L 264.560337 294.308424 
L 264.561497 294.863237 
L 264.554974 295.418051 
L 264.541167 295.972865 
L 264.520504 296.527678 
L 264.493437 297.082492 
L 264.46044 297.637305 
L 264.422005 298.192119 
L 264.378643 298.746932 
L 264.330875 299.301746 
L 264.279238 299.856559 
L 264.224273 300.411373 
L 264.16653 300.966186 
L 264.106556 301.521 
L 264.044902 302.075814 
L 263.982112 302.630627 
L 263.918724 303.185441 
L 263.855265 303.740254 
L 263.79225 304.295068 
L 263.730177 304.849881 
L 263.669526 305.404695 
L 263.610755 305.959508 
L 263.554299 306.514322 
L 263.500564 307.069136 
L 263.44993 307.623949 
L 263.402744 308.178763 
L 263.359321 308.733576 
L 263.319943 309.28839 
L 263.284853 309.843203 
L 263.254258 310.398017 
L 263.228326 310.95283 
L 263.207187 311.507644 
L 263.19093 312.062457 
L 263.179602 312.617271 
L 263.173211 313.172085 
L 263.171725 313.726898 
L 263.175069 314.281712 
L 263.183132 314.836525 
L 263.19576 315.391339 
L 263.212764 315.946152 
L 263.233917 316.500966 
L 263.258954 317.055779 
L 263.287581 317.610593 
L 263.319468 318.165407 
L 263.354256 318.72022 
L 263.391558 319.275034 
L 263.430962 319.829847 
L 263.472031 320.384661 
L 263.514307 320.939474 
L 263.557317 321.494288 
L 263.600569 322.049101 
L 263.643559 322.603915 
L 263.685775 323.158728 
L 263.726696 323.713542 
L 263.765798 324.268356 
L 263.802556 324.823169 
L 263.836447 325.377983 
L 263.866952 325.932796 
L 263.893559 326.48761 
L 263.91577 327.042423 
L 263.933095 327.597237 
L 263.945064 328.15205 
L 263.951223 328.706864 
L 263.951139 329.261678 
L 263.944402 329.816491 
L 263.930627 330.371305 
L 263.909456 330.926118 
L 263.880561 331.480932 
L 263.843642 332.035745 
L 263.798433 332.590559 
L 263.744701 333.145372 
L 263.682246 333.700186 
L 263.610904 334.254999 
L 263.530546 334.809813 
L 263.441081 335.364627 
L 263.342453 335.91944 
L 263.234643 336.474254 
L 263.117668 337.029067 
L 262.991582 337.583881 
z
" style="fill:#ff7f0e;fill-opacity:0.3;"/>
   </g>
   <g id="PolyCollection_4">
    <path clip-path="url(#p4c52fa4a76)" d="M 321.913637 335.849014 
L 296.728074 335.849014 
L 296.61257 335.363665 
L 296.504961 334.878316 
L 296.405276 334.392968 
L 296.313517 333.907619 
L 296.229652 333.422271 
L 296.153622 332.936922 
L 296.085336 332.451573 
L 296.024674 331.966225 
L 295.971487 331.480876 
L 295.925596 330.995527 
L 295.886797 330.510179 
L 295.854855 330.02483 
L 295.829513 329.539482 
L 295.810485 329.054133 
L 295.797463 328.568784 
L 295.79012 328.083436 
L 295.788102 327.598087 
L 295.791042 327.112739 
L 295.798551 326.62739 
L 295.810229 326.142041 
L 295.825658 325.656693 
L 295.844413 325.171344 
L 295.866057 324.685995 
L 295.890146 324.200647 
L 295.916232 323.715298 
L 295.943865 323.22995 
L 295.972594 322.744601 
L 296.001969 322.259252 
L 296.031546 321.773904 
L 296.060888 321.288555 
L 296.089565 320.803207 
L 296.11716 320.317858 
L 296.143271 319.832509 
L 296.167507 319.347161 
L 296.189501 318.861812 
L 296.208901 318.376464 
L 296.22538 317.891115 
L 296.238634 317.405766 
L 296.248384 316.920418 
L 296.25438 316.435069 
L 296.256399 315.94972 
L 296.254248 315.464372 
L 296.247769 314.979023 
L 296.236832 314.493675 
L 296.221343 314.008326 
L 296.201243 313.522977 
L 296.176505 313.037629 
L 296.14714 312.55228 
L 296.113192 312.066932 
L 296.074744 311.581583 
L 296.031911 311.096234 
L 295.984844 310.610886 
L 295.933729 310.125537 
L 295.878785 309.640188 
L 295.820265 309.15484 
L 295.758453 308.669491 
L 295.693662 308.184143 
L 295.626236 307.698794 
L 295.556546 307.213445 
L 295.484988 306.728097 
L 295.411982 306.242748 
L 295.337968 305.7574 
L 295.263409 305.272051 
L 295.188781 304.786702 
L 295.114576 304.301354 
L 295.0413 303.816005 
L 294.969466 303.330656 
L 294.899594 302.845308 
L 294.83221 302.359959 
L 294.767839 301.874611 
L 294.707005 301.389262 
L 294.65023 300.903913 
L 294.598027 300.418565 
L 294.550899 299.933216 
L 294.509338 299.447868 
L 294.473822 298.962519 
L 294.444808 298.47717 
L 294.422738 297.991822 
L 294.408027 297.506473 
L 294.40107 297.021124 
L 294.402232 296.535776 
L 294.411853 296.050427 
L 294.43024 295.565079 
L 294.457672 295.07973 
L 294.494392 294.594381 
L 294.540609 294.109033 
L 294.5965 293.623684 
L 294.662202 293.138336 
L 294.737819 292.652987 
L 294.823416 292.167638 
L 294.91902 291.68229 
L 295.024625 291.196941 
L 295.140183 290.711593 
L 295.265613 290.226244 
L 295.400797 289.740895 
L 295.545581 289.255547 
L 295.699779 288.770198 
L 295.863169 288.284849 
L 296.0355 287.799501 
L 322.606211 287.799501 
L 322.606211 287.799501 
L 322.778542 288.284849 
L 322.941933 288.770198 
L 323.09613 289.255547 
L 323.240915 289.740895 
L 323.376098 290.226244 
L 323.501528 290.711593 
L 323.617087 291.196941 
L 323.722691 291.68229 
L 323.818296 292.167638 
L 323.903892 292.652987 
L 323.979509 293.138336 
L 324.045211 293.623684 
L 324.101102 294.109033 
L 324.14732 294.594381 
L 324.184039 295.07973 
L 324.211471 295.565079 
L 324.229859 296.050427 
L 324.239479 296.535776 
L 324.240642 297.021124 
L 324.233684 297.506473 
L 324.218974 297.991822 
L 324.196903 298.47717 
L 324.167889 298.962519 
L 324.132373 299.447868 
L 324.090812 299.933216 
L 324.043685 300.418565 
L 323.991481 300.903913 
L 323.934706 301.389262 
L 323.873873 301.874611 
L 323.809501 302.359959 
L 323.742117 302.845308 
L 323.672245 303.330656 
L 323.600411 303.816005 
L 323.527135 304.301354 
L 323.45293 304.786702 
L 323.378302 305.272051 
L 323.303743 305.7574 
L 323.22973 306.242748 
L 323.156723 306.728097 
L 323.085165 307.213445 
L 323.015475 307.698794 
L 322.948049 308.184143 
L 322.883259 308.669491 
L 322.821446 309.15484 
L 322.762926 309.640188 
L 322.707983 310.125537 
L 322.656868 310.610886 
L 322.609801 311.096234 
L 322.566967 311.581583 
L 322.528519 312.066932 
L 322.494572 312.55228 
L 322.465206 313.037629 
L 322.440469 313.522977 
L 322.420368 314.008326 
L 322.404879 314.493675 
L 322.393942 314.979023 
L 322.387463 315.464372 
L 322.385313 315.94972 
L 322.387331 316.435069 
L 322.393327 316.920418 
L 322.403077 317.405766 
L 322.416331 317.891115 
L 322.43281 318.376464 
L 322.45221 318.861812 
L 322.474204 319.347161 
L 322.498441 319.832509 
L 322.524551 320.317858 
L 322.552146 320.803207 
L 322.580824 321.288555 
L 322.610165 321.773904 
L 322.639742 322.259252 
L 322.669118 322.744601 
L 322.697846 323.22995 
L 322.725479 323.715298 
L 322.751566 324.200647 
L 322.775655 324.685995 
L 322.797298 325.171344 
L 322.816053 325.656693 
L 322.831483 326.142041 
L 322.84316 326.62739 
L 322.85067 327.112739 
L 322.853609 327.598087 
L 322.851592 328.083436 
L 322.844248 328.568784 
L 322.831227 329.054133 
L 322.812199 329.539482 
L 322.786856 330.02483 
L 322.754914 330.510179 
L 322.716115 330.995527 
L 322.670225 331.480876 
L 322.617037 331.966225 
L 322.556375 332.451573 
L 322.488089 332.936922 
L 322.412059 333.422271 
L 322.328194 333.907619 
L 322.236435 334.392968 
L 322.136751 334.878316 
L 322.029141 335.363665 
L 321.913637 335.849014 
z
" style="fill:#ff7f0e;fill-opacity:0.3;"/>
   </g>
   <g id="PolyCollection_5">
    <path clip-path="url(#p4c52fa4a76)" d="M 383.154274 338.983242 
L 354.845726 338.983242 
L 354.71976 338.634059 
L 354.605135 338.284875 
L 354.501946 337.935692 
L 354.410241 337.586508 
L 354.330022 337.237325 
L 354.261242 336.888141 
L 354.203807 336.538958 
L 354.157574 336.189774 
L 354.122356 335.840591 
L 354.097918 335.491407 
L 354.083978 335.142223 
L 354.080214 334.79304 
L 354.086258 334.443856 
L 354.101703 334.094673 
L 354.126103 333.745489 
L 354.158978 333.396306 
L 354.199812 333.047122 
L 354.248059 332.697939 
L 354.303146 332.348755 
L 354.364475 331.999572 
L 354.431427 331.650388 
L 354.503364 331.301205 
L 354.579637 330.952021 
L 354.659583 330.602838 
L 354.742535 330.253654 
L 354.827821 329.904471 
L 354.914772 329.555287 
L 355.002721 329.206104 
L 355.091013 328.85692 
L 355.179002 328.507737 
L 355.266061 328.158553 
L 355.351579 327.80937 
L 355.434972 327.460186 
L 355.515677 327.111003 
L 355.593166 326.761819 
L 355.666939 326.412636 
L 355.736533 326.063452 
L 355.801521 325.714269 
L 355.861519 325.365085 
L 355.91618 325.015901 
L 355.965205 324.666718 
L 356.008338 324.317534 
L 356.04537 323.968351 
L 356.076137 323.619167 
L 356.100526 323.269984 
L 356.118471 322.9208 
L 356.129954 322.571617 
L 356.135007 322.222433 
L 356.133705 321.87325 
L 356.126176 321.524066 
L 356.112589 321.174883 
L 356.09316 320.825699 
L 356.068146 320.476516 
L 356.037848 320.127332 
L 356.002604 319.778149 
L 355.962788 319.428965 
L 355.918812 319.079782 
L 355.871115 318.730598 
L 355.82017 318.381415 
L 355.766472 318.032231 
L 355.710542 317.683048 
L 355.65292 317.333864 
L 355.594163 316.984681 
L 355.53484 316.635497 
L 355.475532 316.286314 
L 355.416827 315.93713 
L 355.359315 315.587946 
L 355.303587 315.238763 
L 355.250232 314.889579 
L 355.199832 314.540396 
L 355.152958 314.191212 
L 355.11017 313.842029 
L 355.072014 313.492845 
L 355.039015 313.143662 
L 355.01168 312.794478 
L 354.99049 312.445295 
L 354.975902 312.096111 
L 354.968344 311.746928 
L 354.968216 311.397744 
L 354.975885 311.048561 
L 354.991685 310.699377 
L 355.015915 310.350194 
L 355.048839 310.00101 
L 355.090684 309.651827 
L 355.141641 309.302643 
L 355.201859 308.95346 
L 355.271454 308.604276 
L 355.350499 308.255093 
L 355.439033 307.905909 
L 355.537053 307.556726 
L 355.644521 307.207542 
L 355.761362 306.858359 
L 355.887465 306.509175 
L 356.022683 306.159992 
L 356.166838 305.810808 
L 356.319716 305.461624 
L 356.481076 305.112441 
L 356.650646 304.763257 
L 356.828126 304.414074 
L 381.171874 304.414074 
L 381.171874 304.414074 
L 381.349354 304.763257 
L 381.518924 305.112441 
L 381.680284 305.461624 
L 381.833162 305.810808 
L 381.977317 306.159992 
L 382.112535 306.509175 
L 382.238638 306.858359 
L 382.355479 307.207542 
L 382.462947 307.556726 
L 382.560967 307.905909 
L 382.649501 308.255093 
L 382.728546 308.604276 
L 382.798141 308.95346 
L 382.858359 309.302643 
L 382.909316 309.651827 
L 382.951161 310.00101 
L 382.984085 310.350194 
L 383.008315 310.699377 
L 383.024115 311.048561 
L 383.031784 311.397744 
L 383.031656 311.746928 
L 383.024098 312.096111 
L 383.00951 312.445295 
L 382.98832 312.794478 
L 382.960985 313.143662 
L 382.927986 313.492845 
L 382.88983 313.842029 
L 382.847042 314.191212 
L 382.800168 314.540396 
L 382.749768 314.889579 
L 382.696413 315.238763 
L 382.640685 315.587946 
L 382.583173 315.93713 
L 382.524468 316.286314 
L 382.46516 316.635497 
L 382.405837 316.984681 
L 382.34708 317.333864 
L 382.289458 317.683048 
L 382.233528 318.032231 
L 382.17983 318.381415 
L 382.128885 318.730598 
L 382.081188 319.079782 
L 382.037212 319.428965 
L 381.997396 319.778149 
L 381.962152 320.127332 
L 381.931854 320.476516 
L 381.90684 320.825699 
L 381.887411 321.174883 
L 381.873824 321.524066 
L 381.866295 321.87325 
L 381.864993 322.222433 
L 381.870046 322.571617 
L 381.881529 322.9208 
L 381.899474 323.269984 
L 381.923863 323.619167 
L 381.95463 323.968351 
L 381.991662 324.317534 
L 382.034795 324.666718 
L 382.08382 325.015901 
L 382.138481 325.365085 
L 382.198479 325.714269 
L 382.263467 326.063452 
L 382.333061 326.412636 
L 382.406834 326.761819 
L 382.484323 327.111003 
L 382.565028 327.460186 
L 382.648421 327.80937 
L 382.733939 328.158553 
L 382.820998 328.507737 
L 382.908987 328.85692 
L 382.997279 329.206104 
L 383.085228 329.555287 
L 383.172179 329.904471 
L 383.257465 330.253654 
L 383.340417 330.602838 
L 383.420363 330.952021 
L 383.496636 331.301205 
L 383.568573 331.650388 
L 383.635525 331.999572 
L 383.696854 332.348755 
L 383.751941 332.697939 
L 383.800188 333.047122 
L 383.841022 333.396306 
L 383.873897 333.745489 
L 383.898297 334.094673 
L 383.913742 334.443856 
L 383.919786 334.79304 
L 383.916022 335.142223 
L 383.902082 335.491407 
L 383.877644 335.840591 
L 383.842426 336.189774 
L 383.796193 336.538958 
L 383.738758 336.888141 
L 383.669978 337.237325 
L 383.589759 337.586508 
L 383.498054 337.935692 
L 383.394865 338.284875 
L 383.28024 338.634059 
L 383.154274 338.983242 
z
" style="fill:#ff7f0e;fill-opacity:0.3;"/>
   </g>
   <g id="PolyCollection_6">
    <path clip-path="url(#p4c52fa4a76)" d="M 442.108158 333.072169 
L 415.250131 333.072169 
L 415.070025 332.607318 
L 414.901099 332.142467 
L 414.743617 331.677617 
L 414.597791 331.212766 
L 414.463781 330.747915 
L 414.34169 330.283065 
L 414.231566 329.818214 
L 414.133403 329.353363 
L 414.047134 328.888512 
L 413.97264 328.423662 
L 413.909744 327.958811 
L 413.858217 327.49396 
L 413.817773 327.029109 
L 413.788079 326.564259 
L 413.768751 326.099408 
L 413.759358 325.634557 
L 413.759429 325.169707 
L 413.76845 324.704856 
L 413.78587 324.240005 
L 413.81111 323.775154 
L 413.843557 323.310304 
L 413.882578 322.845453 
L 413.927519 322.380602 
L 413.977711 321.915752 
L 414.032476 321.450901 
L 414.091129 320.98605 
L 414.152987 320.521199 
L 414.217368 320.056349 
L 414.283604 319.591498 
L 414.351037 319.126647 
L 414.41903 318.661797 
L 414.486968 318.196946 
L 414.554262 317.732095 
L 414.620357 317.267244 
L 414.684731 316.802394 
L 414.746901 316.337543 
L 414.806424 315.872692 
L 414.862902 315.407842 
L 414.915984 314.942991 
L 414.965366 314.47814 
L 415.010796 314.013289 
L 415.052071 313.548439 
L 415.089041 313.083588 
L 415.121608 312.618737 
L 415.149726 312.153886 
L 415.173401 311.689036 
L 415.19269 311.224185 
L 415.2077 310.759334 
L 415.218586 310.294484 
L 415.225548 309.829633 
L 415.22883 309.364782 
L 415.22872 308.899931 
L 415.225542 308.435081 
L 415.219656 307.97023 
L 415.211453 307.505379 
L 415.201357 307.040529 
L 415.189812 306.575678 
L 415.177286 306.110827 
L 415.164265 305.645976 
L 415.151247 305.181126 
L 415.138743 304.716275 
L 415.127266 304.251424 
L 415.117334 303.786574 
L 415.109463 303.321723 
L 415.104164 302.856872 
L 415.101939 302.392021 
L 415.103278 301.927171 
L 415.108657 301.46232 
L 415.118531 300.997469 
L 415.133338 300.532619 
L 415.153488 300.067768 
L 415.17937 299.602917 
L 415.211342 299.138066 
L 415.249733 298.673216 
L 415.294841 298.208365 
L 415.34693 297.743514 
L 415.406233 297.278663 
L 415.472946 296.813813 
L 415.547231 296.348962 
L 415.629215 295.884111 
L 415.718989 295.419261 
L 415.816609 294.95441 
L 415.922096 294.489559 
L 416.035436 294.024708 
L 416.156583 293.559858 
L 416.285456 293.095007 
L 416.421946 292.630156 
L 416.565909 292.165306 
L 416.717176 291.700455 
L 416.875549 291.235604 
L 417.040803 290.770753 
L 417.212691 290.305903 
L 417.390942 289.841052 
L 417.575265 289.376201 
L 417.765349 288.911351 
L 417.960867 288.4465 
L 418.161476 287.981649 
L 418.366822 287.516798 
L 418.576536 287.051948 
L 438.781753 287.051948 
L 438.781753 287.051948 
L 438.991467 287.516798 
L 439.196812 287.981649 
L 439.397422 288.4465 
L 439.59294 288.911351 
L 439.783024 289.376201 
L 439.967346 289.841052 
L 440.145597 290.305903 
L 440.317485 290.770753 
L 440.48274 291.235604 
L 440.641113 291.700455 
L 440.79238 292.165306 
L 440.936343 292.630156 
L 441.072832 293.095007 
L 441.201706 293.559858 
L 441.322853 294.024708 
L 441.436193 294.489559 
L 441.54168 294.95441 
L 441.6393 295.419261 
L 441.729074 295.884111 
L 441.811058 296.348962 
L 441.885343 296.813813 
L 441.952056 297.278663 
L 442.011359 297.743514 
L 442.063448 298.208365 
L 442.108556 298.673216 
L 442.146947 299.138066 
L 442.178918 299.602917 
L 442.2048 300.067768 
L 442.224951 300.532619 
L 442.239758 300.997469 
L 442.249632 301.46232 
L 442.25501 301.927171 
L 442.256349 302.392021 
L 442.254124 302.856872 
L 442.248826 303.321723 
L 442.240955 303.786574 
L 442.231023 304.251424 
L 442.219546 304.716275 
L 442.207042 305.181126 
L 442.194024 305.645976 
L 442.181003 306.110827 
L 442.168477 306.575678 
L 442.156932 307.040529 
L 442.146835 307.505379 
L 442.138633 307.97023 
L 442.132747 308.435081 
L 442.129569 308.899931 
L 442.129458 309.364782 
L 442.132741 309.829633 
L 442.139703 310.294484 
L 442.150589 310.759334 
L 442.165599 311.224185 
L 442.184888 311.689036 
L 442.208563 312.153886 
L 442.236681 312.618737 
L 442.269248 313.083588 
L 442.306218 313.548439 
L 442.347493 314.013289 
L 442.392922 314.47814 
L 442.442305 314.942991 
L 442.495387 315.407842 
L 442.551865 315.872692 
L 442.611388 316.337543 
L 442.673557 316.802394 
L 442.737931 317.267244 
L 442.804026 317.732095 
L 442.871321 318.196946 
L 442.939259 318.661797 
L 443.007251 319.126647 
L 443.074685 319.591498 
L 443.14092 320.056349 
L 443.205302 320.521199 
L 443.26716 320.98605 
L 443.325813 321.450901 
L 443.380577 321.915752 
L 443.43077 322.380602 
L 443.475711 322.845453 
L 443.514732 323.310304 
L 443.547179 323.775154 
L 443.572418 324.240005 
L 443.589839 324.704856 
L 443.59886 325.169707 
L 443.59893 325.634557 
L 443.589538 326.099408 
L 443.57021 326.564259 
L 443.540516 327.029109 
L 443.500072 327.49396 
L 443.448544 327.958811 
L 443.385649 328.423662 
L 443.311155 328.888512 
L 443.224886 329.353363 
L 443.126723 329.818214 
L 443.016599 330.283065 
L 442.894508 330.747915 
L 442.760498 331.212766 
L 442.614672 331.677617 
L 442.45719 332.142467 
L 442.288264 332.607318 
L 442.108158 333.072169 
z
" style="fill:#ff7f0e;fill-opacity:0.3;"/>
   </g>
   <g id="PolyCollection_7">
    <path clip-path="url(#p4c52fa4a76)" d="M 500.841938 295.134932 
L 475.87464 295.134932 
L 475.648817 295.002063 
L 475.431849 294.869195 
L 475.224234 294.736326 
L 475.02644 294.603457 
L 474.838903 294.470589 
L 474.662029 294.33772 
L 474.496186 294.204851 
L 474.341707 294.071983 
L 474.198885 293.939114 
L 474.067973 293.806245 
L 473.949181 293.673377 
L 473.842678 293.540508 
L 473.748588 293.407639 
L 473.66699 293.274771 
L 473.597918 293.141902 
L 473.541362 293.009034 
L 473.497266 292.876165 
L 473.465528 292.743296 
L 473.446003 292.610428 
L 473.438503 292.477559 
L 473.442795 292.34469 
L 473.458607 292.211822 
L 473.485626 292.078953 
L 473.523501 291.946084 
L 473.571846 291.813216 
L 473.630237 291.680347 
L 473.698224 291.547478 
L 473.775322 291.41461 
L 473.861023 291.281741 
L 473.954793 291.148872 
L 474.056079 291.016004 
L 474.164307 290.883135 
L 474.278891 290.750267 
L 474.399231 290.617398 
L 474.52472 290.484529 
L 474.654744 290.351661 
L 474.788688 290.218792 
L 474.925938 290.085923 
L 475.065886 289.953055 
L 475.207929 289.820186 
L 475.351477 289.687317 
L 475.495953 289.554449 
L 475.640796 289.42158 
L 475.785467 289.288711 
L 475.929447 289.155843 
L 476.072244 289.022974 
L 476.213393 288.890105 
L 476.352457 288.757237 
L 476.489033 288.624368 
L 476.622751 288.4915 
L 476.753273 288.358631 
L 476.880303 288.225762 
L 477.003578 288.092894 
L 477.122875 287.960025 
L 477.238012 287.827156 
L 477.348843 287.694288 
L 477.455264 287.561419 
L 477.557211 287.42855 
L 477.654659 287.295682 
L 477.747621 287.162813 
L 477.836148 287.029944 
L 477.920328 286.897076 
L 478.000285 286.764207 
L 478.076177 286.631338 
L 478.148193 286.49847 
L 478.216555 286.365601 
L 478.281511 286.232733 
L 478.343337 286.099864 
L 478.40233 285.966995 
L 478.458811 285.834127 
L 478.513118 285.701258 
L 478.565606 285.568389 
L 478.616642 285.435521 
L 478.666604 285.302652 
L 478.715877 285.169783 
L 478.76485 285.036915 
L 478.813915 284.904046 
L 478.863461 284.771177 
L 478.913875 284.638309 
L 478.965536 284.50544 
L 479.018813 284.372571 
L 479.074064 284.239703 
L 479.131633 284.106834 
L 479.191846 283.973966 
L 479.255013 283.841097 
L 479.321419 283.708228 
L 479.391332 283.57536 
L 479.46499 283.442491 
L 479.54261 283.309622 
L 479.624381 283.176754 
L 479.710464 283.043885 
L 479.800991 282.911016 
L 479.896067 282.778148 
L 479.995765 282.645279 
L 480.100131 282.51241 
L 480.209181 282.379542 
L 480.3229 282.246673 
L 480.441246 282.113804 
L 480.564149 281.980936 
L 496.152428 281.980936 
L 496.152428 281.980936 
L 496.275332 282.113804 
L 496.393678 282.246673 
L 496.507397 282.379542 
L 496.616446 282.51241 
L 496.720812 282.645279 
L 496.820511 282.778148 
L 496.915587 282.911016 
L 497.006114 283.043885 
L 497.092197 283.176754 
L 497.173967 283.309622 
L 497.251588 283.442491 
L 497.325246 283.57536 
L 497.395158 283.708228 
L 497.461565 283.841097 
L 497.524731 283.973966 
L 497.584945 284.106834 
L 497.642514 284.239703 
L 497.697765 284.372571 
L 497.751042 284.50544 
L 497.802702 284.638309 
L 497.853116 284.771177 
L 497.902663 284.904046 
L 497.951728 285.036915 
L 498.000701 285.169783 
L 498.049974 285.302652 
L 498.099936 285.435521 
L 498.150972 285.568389 
L 498.20346 285.701258 
L 498.257767 285.834127 
L 498.314248 285.966995 
L 498.373241 286.099864 
L 498.435066 286.232733 
L 498.500022 286.365601 
L 498.568384 286.49847 
L 498.640401 286.631338 
L 498.716293 286.764207 
L 498.79625 286.897076 
L 498.88043 287.029944 
L 498.968957 287.162813 
L 499.061918 287.295682 
L 499.159366 287.42855 
L 499.261313 287.561419 
L 499.367735 287.694288 
L 499.478566 287.827156 
L 499.593702 287.960025 
L 499.713 288.092894 
L 499.836275 288.225762 
L 499.963304 288.358631 
L 500.093827 288.4915 
L 500.227544 288.624368 
L 500.36412 288.757237 
L 500.503185 288.890105 
L 500.644333 289.022974 
L 500.787131 289.155843 
L 500.931111 289.288711 
L 501.075782 289.42158 
L 501.220625 289.554449 
L 501.3651 289.687317 
L 501.508648 289.820186 
L 501.650691 289.953055 
L 501.790639 290.085923 
L 501.92789 290.218792 
L 502.061834 290.351661 
L 502.191858 290.484529 
L 502.317346 290.617398 
L 502.437686 290.750267 
L 502.55227 290.883135 
L 502.660498 291.016004 
L 502.761784 291.148872 
L 502.855555 291.281741 
L 502.941256 291.41461 
L 503.018354 291.547478 
L 503.08634 291.680347 
L 503.144732 291.813216 
L 503.193076 291.946084 
L 503.230951 292.078953 
L 503.25797 292.211822 
L 503.273783 292.34469 
L 503.278075 292.477559 
L 503.270574 292.610428 
L 503.25105 292.743296 
L 503.219312 292.876165 
L 503.175216 293.009034 
L 503.11866 293.141902 
L 503.049588 293.274771 
L 502.96799 293.407639 
L 502.873899 293.540508 
L 502.767396 293.673377 
L 502.648605 293.806245 
L 502.517692 293.939114 
L 502.37487 294.071983 
L 502.220391 294.204851 
L 502.054549 294.33772 
L 501.877674 294.470589 
L 501.690138 294.603457 
L 501.492343 294.736326 
L 501.284728 294.869195 
L 501.067761 295.002063 
L 500.841938 295.134932 
z
" style="fill:#ff7f0e;fill-opacity:0.3;"/>
   </g>
   <g id="PolyCollection_8">
    <path clip-path="url(#p4c52fa4a76)" d="M 559.219802 117.00718 
L 536.855064 117.00718 
L 536.653208 116.653276 
L 536.456366 116.299371 
L 536.264629 115.945467 
L 536.078068 115.591562 
L 535.896738 115.237658 
L 535.720679 114.883753 
L 535.549919 114.529849 
L 535.384475 114.175944 
L 535.224359 113.82204 
L 535.069578 113.468135 
L 534.920138 113.11423 
L 534.776047 112.760326 
L 534.637316 112.406421 
L 534.503963 112.052517 
L 534.376016 111.698612 
L 534.253514 111.344708 
L 534.13651 110.990803 
L 534.025071 110.636899 
L 533.91928 110.282994 
L 533.819239 109.92909 
L 533.725067 109.575185 
L 533.636899 109.22128 
L 533.554892 108.867376 
L 533.479217 108.513471 
L 533.410062 108.159567 
L 533.34763 107.805662 
L 533.292138 107.451758 
L 533.243811 107.097853 
L 533.202884 106.743949 
L 533.169596 106.390044 
L 533.144191 106.03614 
L 533.126909 105.682235 
L 533.117985 105.32833 
L 533.117647 104.974426 
L 533.12611 104.620521 
L 533.143573 104.266617 
L 533.170215 103.912712 
L 533.206191 103.558808 
L 533.25163 103.204903 
L 533.30663 102.850999 
L 533.371255 102.497094 
L 533.445533 102.14319 
L 533.529454 101.789285 
L 533.622965 101.435381 
L 533.725973 101.081476 
L 533.838339 100.727571 
L 533.959881 100.373667 
L 534.090372 100.019762 
L 534.229539 99.665858 
L 534.377069 99.311953 
L 534.532603 98.958049 
L 534.695742 98.604144 
L 534.86605 98.25024 
L 535.043055 97.896335 
L 535.226252 97.542431 
L 535.415107 97.188526 
L 535.609059 96.834621 
L 535.807531 96.480717 
L 536.009923 96.126812 
L 536.215629 95.772908 
L 536.42403 95.419003 
L 536.63451 95.065099 
L 536.846451 94.711194 
L 537.059246 94.35729 
L 537.272297 94.003385 
L 537.485024 93.649481 
L 537.69687 93.295576 
L 537.907299 92.941671 
L 538.115809 92.587767 
L 538.321927 92.233862 
L 538.525218 91.879958 
L 538.725286 91.526053 
L 538.921776 91.172149 
L 539.114374 90.818244 
L 539.302814 90.46434 
L 539.486873 90.110435 
L 539.666374 89.756531 
L 539.841189 89.402626 
L 540.011231 89.048721 
L 540.176461 88.694817 
L 540.336883 88.340912 
L 540.49254 87.987008 
L 540.643516 87.633103 
L 540.789934 87.279199 
L 540.931946 86.925294 
L 541.06974 86.57139 
L 541.203528 86.217485 
L 541.333548 85.863581 
L 541.460056 85.509676 
L 541.583329 85.155771 
L 541.703652 84.801867 
L 541.821322 84.447962 
L 541.936639 84.094058 
L 542.049908 83.740153 
L 542.161428 83.386249 
L 542.271494 83.032344 
L 542.380393 82.67844 
L 542.4884 82.324535 
L 542.595774 81.970631 
L 553.479092 81.970631 
L 553.479092 81.970631 
L 553.586466 82.324535 
L 553.694473 82.67844 
L 553.803372 83.032344 
L 553.913439 83.386249 
L 554.024958 83.740153 
L 554.138227 84.094058 
L 554.253545 84.447962 
L 554.371214 84.801867 
L 554.491538 85.155771 
L 554.61481 85.509676 
L 554.741319 85.863581 
L 554.871338 86.217485 
L 555.005126 86.57139 
L 555.14292 86.925294 
L 555.284933 87.279199 
L 555.43135 87.633103 
L 555.582327 87.987008 
L 555.737984 88.340912 
L 555.898405 88.694817 
L 556.063635 89.048721 
L 556.233678 89.402626 
L 556.408492 89.756531 
L 556.587994 90.110435 
L 556.772053 90.46434 
L 556.960492 90.818244 
L 557.153091 91.172149 
L 557.34958 91.526053 
L 557.549648 91.879958 
L 557.75294 92.233862 
L 557.959058 92.587767 
L 558.167567 92.941671 
L 558.377997 93.295576 
L 558.589842 93.649481 
L 558.802569 94.003385 
L 559.01562 94.35729 
L 559.228415 94.711194 
L 559.440356 95.065099 
L 559.650836 95.419003 
L 559.859238 95.772908 
L 560.064943 96.126812 
L 560.267336 96.480717 
L 560.465807 96.834621 
L 560.65976 97.188526 
L 560.848614 97.542431 
L 561.031811 97.896335 
L 561.208816 98.25024 
L 561.379124 98.604144 
L 561.542264 98.958049 
L 561.697797 99.311953 
L 561.845327 99.665858 
L 561.984495 100.019762 
L 562.114985 100.373667 
L 562.236527 100.727571 
L 562.348893 101.081476 
L 562.451901 101.435381 
L 562.545412 101.789285 
L 562.629333 102.14319 
L 562.703611 102.497094 
L 562.768236 102.850999 
L 562.823236 103.204903 
L 562.868675 103.558808 
L 562.904652 103.912712 
L 562.931293 104.266617 
L 562.948756 104.620521 
L 562.957219 104.974426 
L 562.956881 105.32833 
L 562.947957 105.682235 
L 562.930675 106.03614 
L 562.90527 106.390044 
L 562.871983 106.743949 
L 562.831056 107.097853 
L 562.782729 107.451758 
L 562.727236 107.805662 
L 562.664804 108.159567 
L 562.595649 108.513471 
L 562.519974 108.867376 
L 562.437967 109.22128 
L 562.3498 109.575185 
L 562.255627 109.92909 
L 562.155586 110.282994 
L 562.049795 110.636899 
L 561.938356 110.990803 
L 561.821352 111.344708 
L 561.69885 111.698612 
L 561.570903 112.052517 
L 561.437551 112.406421 
L 561.298819 112.760326 
L 561.154728 113.11423 
L 561.005288 113.468135 
L 560.850507 113.82204 
L 560.690391 114.175944 
L 560.524948 114.529849 
L 560.354187 114.883753 
L 560.178128 115.237658 
L 559.996798 115.591562 
L 559.810237 115.945467 
L 559.6185 116.299371 
L 559.421658 116.653276 
L 559.219802 117.00718 
z
" style="fill:#ff7f0e;fill-opacity:0.3;"/>
   </g>
   <g id="PolyCollection_9">
    <path clip-path="url(#p4c52fa4a76)" d="M 617.084923 137.317017 
L 598.348232 137.317017 
L 598.275244 137.056591 
L 598.207572 136.796165 
L 598.145089 136.535739 
L 598.087643 136.275313 
L 598.035054 136.014887 
L 597.98712 135.754461 
L 597.943611 135.494034 
L 597.904277 135.233608 
L 597.868846 134.973182 
L 597.837025 134.712756 
L 597.808503 134.45233 
L 597.782952 134.191904 
L 597.760029 133.931478 
L 597.739376 133.671052 
L 597.720627 133.410626 
L 597.703405 133.1502 
L 597.687324 132.889774 
L 597.671996 132.629348 
L 597.65703 132.368921 
L 597.642033 132.108495 
L 597.626615 131.848069 
L 597.61039 131.587643 
L 597.592977 131.327217 
L 597.574006 131.066791 
L 597.553114 130.806365 
L 597.529954 130.545939 
L 597.504193 130.285513 
L 597.475514 130.025087 
L 597.443618 129.764661 
L 597.408229 129.504234 
L 597.369091 129.243808 
L 597.325972 128.983382 
L 597.278665 128.722956 
L 597.226991 128.46253 
L 597.170795 128.202104 
L 597.109954 127.941678 
L 597.044373 127.681252 
L 596.973988 127.420826 
L 596.898764 127.1604 
L 596.8187 126.899974 
L 596.733823 126.639547 
L 596.644195 126.379121 
L 596.549908 126.118695 
L 596.451085 125.858269 
L 596.34788 125.597843 
L 596.240479 125.337417 
L 596.129096 125.076991 
L 596.013975 124.816565 
L 595.89539 124.556139 
L 595.773638 124.295713 
L 595.649047 124.035287 
L 595.521965 123.77486 
L 595.392767 123.514434 
L 595.261848 123.254008 
L 595.129624 122.993582 
L 594.996529 122.733156 
L 594.863012 122.47273 
L 594.729541 122.212304 
L 594.596593 121.951878 
L 594.464658 121.691452 
L 594.334233 121.431026 
L 594.205824 121.1706 
L 594.079939 120.910173 
L 593.957091 120.649747 
L 593.837792 120.389321 
L 593.72255 120.128895 
L 593.611873 119.868469 
L 593.506258 119.608043 
L 593.406198 119.347617 
L 593.312172 119.087191 
L 593.224647 118.826765 
L 593.144076 118.566339 
L 593.070894 118.305913 
L 593.00552 118.045486 
L 592.948349 117.78506 
L 592.899755 117.524634 
L 592.86009 117.264208 
L 592.829677 117.003782 
L 592.808815 116.743356 
L 592.797773 116.48293 
L 592.796791 116.222504 
L 592.80608 115.962078 
L 592.825818 115.701652 
L 592.856149 115.441226 
L 592.897189 115.180799 
L 592.949015 114.920373 
L 593.011675 114.659947 
L 593.085179 114.399521 
L 593.169507 114.139095 
L 593.264603 113.878669 
L 593.370376 113.618243 
L 593.486706 113.357817 
L 593.613437 113.097391 
L 593.750382 112.836965 
L 593.897323 112.576539 
L 594.054013 112.316112 
L 594.220177 112.055686 
L 594.395509 111.79526 
L 594.57968 111.534834 
L 620.853475 111.534834 
L 620.853475 111.534834 
L 621.037646 111.79526 
L 621.212978 112.055686 
L 621.379142 112.316112 
L 621.535832 112.576539 
L 621.682774 112.836965 
L 621.819718 113.097391 
L 621.946449 113.357817 
L 622.062779 113.618243 
L 622.168552 113.878669 
L 622.263648 114.139095 
L 622.347976 114.399521 
L 622.421481 114.659947 
L 622.48414 114.920373 
L 622.535966 115.180799 
L 622.577006 115.441226 
L 622.607337 115.701652 
L 622.627075 115.962078 
L 622.636364 116.222504 
L 622.635382 116.48293 
L 622.624341 116.743356 
L 622.603478 117.003782 
L 622.573066 117.264208 
L 622.5334 117.524634 
L 622.484806 117.78506 
L 622.427635 118.045486 
L 622.362261 118.305913 
L 622.289079 118.566339 
L 622.208508 118.826765 
L 622.120984 119.087191 
L 622.026957 119.347617 
L 621.926897 119.608043 
L 621.821282 119.868469 
L 621.710605 120.128895 
L 621.595363 120.389321 
L 621.476064 120.649747 
L 621.353216 120.910173 
L 621.227331 121.1706 
L 621.098922 121.431026 
L 620.968497 121.691452 
L 620.836562 121.951878 
L 620.703614 122.212304 
L 620.570143 122.47273 
L 620.436627 122.733156 
L 620.303531 122.993582 
L 620.171307 123.254008 
L 620.040388 123.514434 
L 619.91119 123.77486 
L 619.784108 124.035287 
L 619.659517 124.295713 
L 619.537765 124.556139 
L 619.41918 124.816565 
L 619.304059 125.076991 
L 619.192676 125.337417 
L 619.085275 125.597843 
L 618.98207 125.858269 
L 618.883247 126.118695 
L 618.78896 126.379121 
L 618.699332 126.639547 
L 618.614455 126.899974 
L 618.534391 127.1604 
L 618.459167 127.420826 
L 618.388782 127.681252 
L 618.323201 127.941678 
L 618.26236 128.202104 
L 618.206165 128.46253 
L 618.15449 128.722956 
L 618.107183 128.983382 
L 618.064064 129.243808 
L 618.024926 129.504234 
L 617.989537 129.764661 
L 617.957641 130.025087 
L 617.928962 130.285513 
L 617.903201 130.545939 
L 617.880041 130.806365 
L 617.859149 131.066791 
L 617.840178 131.327217 
L 617.822765 131.587643 
L 617.80654 131.848069 
L 617.791122 132.108495 
L 617.776125 132.368921 
L 617.761159 132.629348 
L 617.745831 132.889774 
L 617.729751 133.1502 
L 617.712528 133.410626 
L 617.693779 133.671052 
L 617.673126 133.931478 
L 617.650203 134.191904 
L 617.624652 134.45233 
L 617.59613 134.712756 
L 617.564309 134.973182 
L 617.528878 135.233608 
L 617.489544 135.494034 
L 617.446035 135.754461 
L 617.398101 136.014887 
L 617.345512 136.275313 
L 617.288066 136.535739 
L 617.225583 136.796165 
L 617.157911 137.056591 
L 617.084923 137.317017 
z
" style="fill:#ff7f0e;fill-opacity:0.3;"/>
   </g>
   <g id="matplotlib.axis_1">
    <g id="xtick_1">
     <g id="line2d_1">
      <defs>
       <path d="M 0 0 
L 0 3.5 
" id="maec910d7c6" style="stroke:#000000;stroke-width:0.8;"/>
      </defs>
      <g>
       <use style="stroke:#000000;stroke-width:0.8;" x="130.283422" xlink:href="#maec910d7c6" y="504"/>
      </g>
     </g>
     <g id="text_1">
      <!-- 64m -->
      <defs>
       <path d="M 33.015625 40.375 
Q 26.375 40.375 22.484375 35.828125 
Q 18.609375 31.296875 18.609375 23.390625 
Q 18.609375 15.53125 22.484375 10.953125 
Q 26.375 6.390625 33.015625 6.390625 
Q 39.65625 6.390625 43.53125 10.953125 
Q 47.40625 15.53125 47.40625 23.390625 
Q 47.40625 31.296875 43.53125 35.828125 
Q 39.65625 40.375 33.015625 40.375 
M 52.59375 71.296875 
L 52.59375 62.3125 
Q 48.875 64.0625 45.09375 64.984375 
Q 41.3125 65.921875 37.59375 65.921875 
Q 27.828125 65.921875 22.671875 59.328125 
Q 17.53125 52.734375 16.796875 39.40625 
Q 19.671875 43.65625 24.015625 45.921875 
Q 28.375 48.1875 33.59375 48.1875 
Q 44.578125 48.1875 50.953125 41.515625 
Q 57.328125 34.859375 57.328125 23.390625 
Q 57.328125 12.15625 50.6875 5.359375 
Q 44.046875 -1.421875 33.015625 -1.421875 
Q 20.359375 -1.421875 13.671875 8.265625 
Q 6.984375 17.96875 6.984375 36.375 
Q 6.984375 53.65625 15.1875 63.9375 
Q 23.390625 74.21875 37.203125 74.21875 
Q 40.921875 74.21875 44.703125 73.484375 
Q 48.484375 72.75 52.59375 71.296875 
" id="DejaVuSans-36"/>
       <path d="M 37.796875 64.3125 
L 12.890625 25.390625 
L 37.796875 25.390625 
z
M 35.203125 72.90625 
L 47.609375 72.90625 
L 47.609375 25.390625 
L 58.015625 25.390625 
L 58.015625 17.1875 
L 47.609375 17.1875 
L 47.609375 0 
L 37.796875 0 
L 37.796875 17.1875 
L 4.890625 17.1875 
L 4.890625 26.703125 
z
" id="DejaVuSans-34"/>
       <path d="M 52 44.1875 
Q 55.375 50.25 60.0625 53.125 
Q 64.75 56 71.09375 56 
Q 79.640625 56 84.28125 50.015625 
Q 88.921875 44.046875 88.921875 33.015625 
L 88.921875 0 
L 79.890625 0 
L 79.890625 32.71875 
Q 79.890625 40.578125 77.09375 44.375 
Q 74.3125 48.1875 68.609375 48.1875 
Q 61.625 48.1875 57.5625 43.546875 
Q 53.515625 38.921875 53.515625 30.90625 
L 53.515625 0 
L 44.484375 0 
L 44.484375 32.71875 
Q 44.484375 40.625 41.703125 44.40625 
Q 38.921875 48.1875 33.109375 48.1875 
Q 26.21875 48.1875 22.15625 43.53125 
Q 18.109375 38.875 18.109375 30.90625 
L 18.109375 0 
L 9.078125 0 
L 9.078125 54.6875 
L 18.109375 54.6875 
L 18.109375 46.1875 
Q 21.1875 51.21875 25.484375 53.609375 
Q 29.78125 56 35.6875 56 
Q 41.65625 56 45.828125 52.96875 
Q 50 49.953125 52 44.1875 
" id="DejaVuSans-6d"/>
      </defs>
      <g transform="translate(119.05061 518.598438)scale(0.1 -0.1)">
       <use xlink:href="#DejaVuSans-36"/>
       <use x="63.623047" xlink:href="#DejaVuSans-34"/>
       <use x="127.246094" xlink:href="#DejaVuSans-6d"/>
      </g>
     </g>
    </g>
    <g id="xtick_2">
     <g id="line2d_2">
      <g>
       <use style="stroke:#000000;stroke-width:0.8;" x="189.962567" xlink:href="#maec910d7c6" y="504"/>
      </g>
     </g>
     <g id="text_2">
      <!-- 128m -->
      <defs>
       <path d="M 12.40625 8.296875 
L 28.515625 8.296875 
L 28.515625 63.921875 
L 10.984375 60.40625 
L 10.984375 69.390625 
L 28.421875 72.90625 
L 38.28125 72.90625 
L 38.28125 8.296875 
L 54.390625 8.296875 
L 54.390625 0 
L 12.40625 0 
z
" id="DejaVuSans-31"/>
       <path d="M 19.1875 8.296875 
L 53.609375 8.296875 
L 53.609375 0 
L 7.328125 0 
L 7.328125 8.296875 
Q 12.9375 14.109375 22.625 23.890625 
Q 32.328125 33.6875 34.8125 36.53125 
Q 39.546875 41.84375 41.421875 45.53125 
Q 43.3125 49.21875 43.3125 52.78125 
Q 43.3125 58.59375 39.234375 62.25 
Q 35.15625 65.921875 28.609375 65.921875 
Q 23.96875 65.921875 18.8125 64.3125 
Q 13.671875 62.703125 7.8125 59.421875 
L 7.8125 69.390625 
Q 13.765625 71.78125 18.9375 73 
Q 24.125 74.21875 28.421875 74.21875 
Q 39.75 74.21875 46.484375 68.546875 
Q 53.21875 62.890625 53.21875 53.421875 
Q 53.21875 48.921875 51.53125 44.890625 
Q 49.859375 40.875 45.40625 35.40625 
Q 44.1875 33.984375 37.640625 27.21875 
Q 31.109375 20.453125 19.1875 8.296875 
" id="DejaVuSans-32"/>
       <path d="M 31.78125 34.625 
Q 24.75 34.625 20.71875 30.859375 
Q 16.703125 27.09375 16.703125 20.515625 
Q 16.703125 13.921875 20.71875 10.15625 
Q 24.75 6.390625 31.78125 6.390625 
Q 38.8125 6.390625 42.859375 10.171875 
Q 46.921875 13.96875 46.921875 20.515625 
Q 46.921875 27.09375 42.890625 30.859375 
Q 38.875 34.625 31.78125 34.625 
M 21.921875 38.8125 
Q 15.578125 40.375 12.03125 44.71875 
Q 8.5 49.078125 8.5 55.328125 
Q 8.5 64.0625 14.71875 69.140625 
Q 20.953125 74.21875 31.78125 74.21875 
Q 42.671875 74.21875 48.875 69.140625 
Q 55.078125 64.0625 55.078125 55.328125 
Q 55.078125 49.078125 51.53125 44.71875 
Q 48 40.375 41.703125 38.8125 
Q 48.828125 37.15625 52.796875 32.3125 
Q 56.78125 27.484375 56.78125 20.515625 
Q 56.78125 9.90625 50.3125 4.234375 
Q 43.84375 -1.421875 31.78125 -1.421875 
Q 19.734375 -1.421875 13.25 4.234375 
Q 6.78125 9.90625 6.78125 20.515625 
Q 6.78125 27.484375 10.78125 32.3125 
Q 14.796875 37.15625 21.921875 38.8125 
M 18.3125 54.390625 
Q 18.3125 48.734375 21.84375 45.5625 
Q 25.390625 42.390625 31.78125 42.390625 
Q 38.140625 42.390625 41.71875 45.5625 
Q 45.3125 48.734375 45.3125 54.390625 
Q 45.3125 60.0625 41.71875 63.234375 
Q 38.140625 66.40625 31.78125 66.40625 
Q 25.390625 66.40625 21.84375 63.234375 
Q 18.3125 60.0625 18.3125 54.390625 
" id="DejaVuSans-38"/>
      </defs>
      <g transform="translate(175.548504 518.598438)scale(0.1 -0.1)">
       <use xlink:href="#DejaVuSans-31"/>
       <use x="63.623047" xlink:href="#DejaVuSans-32"/>
       <use x="127.246094" xlink:href="#DejaVuSans-38"/>
       <use x="190.869141" xlink:href="#DejaVuSans-6d"/>
      </g>
     </g>
    </g>
    <g id="xtick_3">
     <g id="line2d_3">
      <g>
       <use style="stroke:#000000;stroke-width:0.8;" x="249.641711" xlink:href="#maec910d7c6" y="504"/>
      </g>
     </g>
     <g id="text_3">
      <!-- 256m -->
      <defs>
       <path d="M 10.796875 72.90625 
L 49.515625 72.90625 
L 49.515625 64.59375 
L 19.828125 64.59375 
L 19.828125 46.734375 
Q 21.96875 47.46875 24.109375 47.828125 
Q 26.265625 48.1875 28.421875 48.1875 
Q 40.625 48.1875 47.75 41.5 
Q 54.890625 34.8125 54.890625 23.390625 
Q 54.890625 11.625 47.5625 5.09375 
Q 40.234375 -1.421875 26.90625 -1.421875 
Q 22.3125 -1.421875 17.546875 -0.640625 
Q 12.796875 0.140625 7.71875 1.703125 
L 7.71875 11.625 
Q 12.109375 9.234375 16.796875 8.0625 
Q 21.484375 6.890625 26.703125 6.890625 
Q 35.15625 6.890625 40.078125 11.328125 
Q 45.015625 15.765625 45.015625 23.390625 
Q 45.015625 31 40.078125 35.4375 
Q 35.15625 39.890625 26.703125 39.890625 
Q 22.75 39.890625 18.8125 39.015625 
Q 14.890625 38.140625 10.796875 36.28125 
z
" id="DejaVuSans-35"/>
      </defs>
      <g transform="translate(235.227649 518.598438)scale(0.1 -0.1)">
       <use xlink:href="#DejaVuSans-32"/>
       <use x="63.623047" xlink:href="#DejaVuSans-35"/>
       <use x="127.246094" xlink:href="#DejaVuSans-36"/>
       <use x="190.869141" xlink:href="#DejaVuSans-6d"/>
      </g>
     </g>
    </g>
    <g id="xtick_4">
     <g id="line2d_4">
      <g>
       <use style="stroke:#000000;stroke-width:0.8;" x="309.320856" xlink:href="#maec910d7c6" y="504"/>
      </g>
     </g>
     <g id="text_4">
      <!-- 512m -->
      <g transform="translate(294.906793 518.598438)scale(0.1 -0.1)">
       <use xlink:href="#DejaVuSans-35"/>
       <use x="63.623047" xlink:href="#DejaVuSans-31"/>
       <use x="127.246094" xlink:href="#DejaVuSans-32"/>
       <use x="190.869141" xlink:href="#DejaVuSans-6d"/>
      </g>
     </g>
    </g>
    <g id="xtick_5">
     <g id="line2d_5">
      <g>
       <use style="stroke:#000000;stroke-width:0.8;" x="369" xlink:href="#maec910d7c6" y="504"/>
      </g>
     </g>
     <g id="text_5">
      <!-- 1g -->
      <defs>
       <path d="M 45.40625 27.984375 
Q 45.40625 37.75 41.375 43.109375 
Q 37.359375 48.484375 30.078125 48.484375 
Q 22.859375 48.484375 18.828125 43.109375 
Q 14.796875 37.75 14.796875 27.984375 
Q 14.796875 18.265625 18.828125 12.890625 
Q 22.859375 7.515625 30.078125 7.515625 
Q 37.359375 7.515625 41.375 12.890625 
Q 45.40625 18.265625 45.40625 27.984375 
M 54.390625 6.78125 
Q 54.390625 -7.171875 48.1875 -13.984375 
Q 42 -20.796875 29.203125 -20.796875 
Q 24.46875 -20.796875 20.265625 -20.09375 
Q 16.0625 -19.390625 12.109375 -17.921875 
L 12.109375 -9.1875 
Q 16.0625 -11.328125 19.921875 -12.34375 
Q 23.78125 -13.375 27.78125 -13.375 
Q 36.625 -13.375 41.015625 -8.765625 
Q 45.40625 -4.15625 45.40625 5.171875 
L 45.40625 9.625 
Q 42.625 4.78125 38.28125 2.390625 
Q 33.9375 0 27.875 0 
Q 17.828125 0 11.671875 7.65625 
Q 5.515625 15.328125 5.515625 27.984375 
Q 5.515625 40.671875 11.671875 48.328125 
Q 17.828125 56 27.875 56 
Q 33.9375 56 38.28125 53.609375 
Q 42.625 51.21875 45.40625 46.390625 
L 45.40625 54.6875 
L 54.390625 54.6875 
z
" id="DejaVuSans-67"/>
      </defs>
      <g transform="translate(362.644531 518.598438)scale(0.1 -0.1)">
       <use xlink:href="#DejaVuSans-31"/>
       <use x="63.623047" xlink:href="#DejaVuSans-67"/>
      </g>
     </g>
    </g>
    <g id="xtick_6">
     <g id="line2d_6">
      <g>
       <use style="stroke:#000000;stroke-width:0.8;" x="428.679144" xlink:href="#maec910d7c6" y="504"/>
      </g>
     </g>
     <g id="text_6">
      <!-- 2g -->
      <g transform="translate(422.323676 518.598438)scale(0.1 -0.1)">
       <use xlink:href="#DejaVuSans-32"/>
       <use x="63.623047" xlink:href="#DejaVuSans-67"/>
      </g>
     </g>
    </g>
    <g id="xtick_7">
     <g id="line2d_7">
      <g>
       <use style="stroke:#000000;stroke-width:0.8;" x="488.358289" xlink:href="#maec910d7c6" y="504"/>
      </g>
     </g>
     <g id="text_7">
      <!-- 4g -->
      <g transform="translate(482.00282 518.598438)scale(0.1 -0.1)">
       <use xlink:href="#DejaVuSans-34"/>
       <use x="63.623047" xlink:href="#DejaVuSans-67"/>
      </g>
     </g>
    </g>
    <g id="xtick_8">
     <g id="line2d_8">
      <g>
       <use style="stroke:#000000;stroke-width:0.8;" x="548.037433" xlink:href="#maec910d7c6" y="504"/>
      </g>
     </g>
     <g id="text_8">
      <!-- 8g -->
      <g transform="translate(541.681964 518.598438)scale(0.1 -0.1)">
       <use xlink:href="#DejaVuSans-38"/>
       <use x="63.623047" xlink:href="#DejaVuSans-67"/>
      </g>
     </g>
    </g>
    <g id="xtick_9">
     <g id="line2d_9">
      <g>
       <use style="stroke:#000000;stroke-width:0.8;" x="607.716578" xlink:href="#maec910d7c6" y="504"/>
      </g>
     </g>
     <g id="text_9">
      <!-- 16g -->
      <g transform="translate(598.179859 518.598438)scale(0.1 -0.1)">
       <use xlink:href="#DejaVuSans-31"/>
       <use x="63.623047" xlink:href="#DejaVuSans-36"/>
       <use x="127.246094" xlink:href="#DejaVuSans-67"/>
      </g>
     </g>
    </g>
   </g>
   <g id="matplotlib.axis_2">
    <g id="ytick_1">
     <g id="line2d_10">
      <defs>
       <path d="M 0 0 
L -3.5 0 
" id="m8783264aa6" style="stroke:#000000;stroke-width:0.8;"/>
      </defs>
      <g>
       <use style="stroke:#000000;stroke-width:0.8;" x="90" xlink:href="#m8783264aa6" y="504"/>
      </g>
     </g>
     <g id="text_10">
      <!-- 0.0 -->
      <defs>
       <path d="M 31.78125 66.40625 
Q 24.171875 66.40625 20.328125 58.90625 
Q 16.5 51.421875 16.5 36.375 
Q 16.5 21.390625 20.328125 13.890625 
Q 24.171875 6.390625 31.78125 6.390625 
Q 39.453125 6.390625 43.28125 13.890625 
Q 47.125 21.390625 47.125 36.375 
Q 47.125 51.421875 43.28125 58.90625 
Q 39.453125 66.40625 31.78125 66.40625 
M 31.78125 74.21875 
Q 44.046875 74.21875 50.515625 64.515625 
Q 56.984375 54.828125 56.984375 36.375 
Q 56.984375 17.96875 50.515625 8.265625 
Q 44.046875 -1.421875 31.78125 -1.421875 
Q 19.53125 -1.421875 13.0625 8.265625 
Q 6.59375 17.96875 6.59375 36.375 
Q 6.59375 54.828125 13.0625 64.515625 
Q 19.53125 74.21875 31.78125 74.21875 
" id="DejaVuSans-30"/>
       <path d="M 10.6875 12.40625 
L 21 12.40625 
L 21 0 
L 10.6875 0 
z
" id="DejaVuSans-2e"/>
      </defs>
      <g transform="translate(67.096875 507.799219)scale(0.1 -0.1)">
       <use xlink:href="#DejaVuSans-30"/>
       <use x="63.623047" xlink:href="#DejaVuSans-2e"/>
       <use x="95.410156" xlink:href="#DejaVuSans-30"/>
      </g>
     </g>
    </g>
    <g id="ytick_2">
     <g id="line2d_11">
      <g>
       <use style="stroke:#000000;stroke-width:0.8;" x="90" xlink:href="#m8783264aa6" y="418.770323"/>
      </g>
     </g>
     <g id="text_11">
      <!-- 0.5 -->
      <g transform="translate(67.096875 422.569541)scale(0.1 -0.1)">
       <use xlink:href="#DejaVuSans-30"/>
       <use x="63.623047" xlink:href="#DejaVuSans-2e"/>
       <use x="95.410156" xlink:href="#DejaVuSans-35"/>
      </g>
     </g>
    </g>
    <g id="ytick_3">
     <g id="line2d_12">
      <g>
       <use style="stroke:#000000;stroke-width:0.8;" x="90" xlink:href="#m8783264aa6" y="333.540645"/>
      </g>
     </g>
     <g id="text_12">
      <!-- 1.0 -->
      <g transform="translate(67.096875 337.339864)scale(0.1 -0.1)">
       <use xlink:href="#DejaVuSans-31"/>
       <use x="63.623047" xlink:href="#DejaVuSans-2e"/>
       <use x="95.410156" xlink:href="#DejaVuSans-30"/>
      </g>
     </g>
    </g>
    <g id="ytick_4">
     <g id="line2d_13">
      <g>
       <use style="stroke:#000000;stroke-width:0.8;" x="90" xlink:href="#m8783264aa6" y="248.310968"/>
      </g>
     </g>
     <g id="text_13">
      <!-- 1.5 -->
      <g transform="translate(67.096875 252.110187)scale(0.1 -0.1)">
       <use xlink:href="#DejaVuSans-31"/>
       <use x="63.623047" xlink:href="#DejaVuSans-2e"/>
       <use x="95.410156" xlink:href="#DejaVuSans-35"/>
      </g>
     </g>
    </g>
    <g id="ytick_5">
     <g id="line2d_14">
      <g>
       <use style="stroke:#000000;stroke-width:0.8;" x="90" xlink:href="#m8783264aa6" y="163.08129"/>
      </g>
     </g>
     <g id="text_14">
      <!-- 2.0 -->
      <g transform="translate(67.096875 166.880509)scale(0.1 -0.1)">
       <use xlink:href="#DejaVuSans-32"/>
       <use x="63.623047" xlink:href="#DejaVuSans-2e"/>
       <use x="95.410156" xlink:href="#DejaVuSans-30"/>
      </g>
     </g>
    </g>
    <g id="ytick_6">
     <g id="line2d_15">
      <g>
       <use style="stroke:#000000;stroke-width:0.8;" x="90" xlink:href="#m8783264aa6" y="77.851613"/>
      </g>
     </g>
     <g id="text_15">
      <!-- 2.5 -->
      <g transform="translate(67.096875 81.650832)scale(0.1 -0.1)">
       <use xlink:href="#DejaVuSans-32"/>
       <use x="63.623047" xlink:href="#DejaVuSans-2e"/>
       <use x="95.410156" xlink:href="#DejaVuSans-35"/>
      </g>
     </g>
    </g>
   </g>
   <g id="LineCollection_1">
    <path clip-path="url(#p4c52fa4a76)" d="M 122.823529 274.298588 
L 137.743316 274.298588 
" style="fill:none;stroke:#ff7f0e;stroke-width:1.5;"/>
    <path clip-path="url(#p4c52fa4a76)" d="M 182.502674 276.858665 
L 197.42246 276.858665 
" style="fill:none;stroke:#ff7f0e;stroke-width:1.5;"/>
    <path clip-path="url(#p4c52fa4a76)" d="M 242.181818 282.657339 
L 257.101604 282.657339 
" style="fill:none;stroke:#ff7f0e;stroke-width:1.5;"/>
    <path clip-path="url(#p4c52fa4a76)" d="M 301.860963 287.799501 
L 316.780749 287.799501 
" style="fill:none;stroke:#ff7f0e;stroke-width:1.5;"/>
    <path clip-path="url(#p4c52fa4a76)" d="M 361.540107 304.414074 
L 376.459893 304.414074 
" style="fill:none;stroke:#ff7f0e;stroke-width:1.5;"/>
    <path clip-path="url(#p4c52fa4a76)" d="M 421.219251 287.051948 
L 436.139037 287.051948 
" style="fill:none;stroke:#ff7f0e;stroke-width:1.5;"/>
    <path clip-path="url(#p4c52fa4a76)" d="M 480.898396 281.980936 
L 495.818182 281.980936 
" style="fill:none;stroke:#ff7f0e;stroke-width:1.5;"/>
    <path clip-path="url(#p4c52fa4a76)" d="M 540.57754 81.970631 
L 555.497326 81.970631 
" style="fill:none;stroke:#ff7f0e;stroke-width:1.5;"/>
    <path clip-path="url(#p4c52fa4a76)" d="M 600.256684 111.534834 
L 615.176471 111.534834 
" style="fill:none;stroke:#ff7f0e;stroke-width:1.5;"/>
   </g>
   <g id="LineCollection_2">
    <path clip-path="url(#p4c52fa4a76)" d="M 122.823529 322.096471 
L 137.743316 322.096471 
" style="fill:none;stroke:#ff7f0e;stroke-width:1.5;"/>
    <path clip-path="url(#p4c52fa4a76)" d="M 182.502674 283.180023 
L 197.42246 283.180023 
" style="fill:none;stroke:#ff7f0e;stroke-width:1.5;"/>
    <path clip-path="url(#p4c52fa4a76)" d="M 242.181818 337.583881 
L 257.101604 337.583881 
" style="fill:none;stroke:#ff7f0e;stroke-width:1.5;"/>
    <path clip-path="url(#p4c52fa4a76)" d="M 301.860963 335.849014 
L 316.780749 335.849014 
" style="fill:none;stroke:#ff7f0e;stroke-width:1.5;"/>
    <path clip-path="url(#p4c52fa4a76)" d="M 361.540107 338.983242 
L 376.459893 338.983242 
" style="fill:none;stroke:#ff7f0e;stroke-width:1.5;"/>
    <path clip-path="url(#p4c52fa4a76)" d="M 421.219251 333.072169 
L 436.139037 333.072169 
" style="fill:none;stroke:#ff7f0e;stroke-width:1.5;"/>
    <path clip-path="url(#p4c52fa4a76)" d="M 480.898396 295.134932 
L 495.818182 295.134932 
" style="fill:none;stroke:#ff7f0e;stroke-width:1.5;"/>
    <path clip-path="url(#p4c52fa4a76)" d="M 540.57754 117.00718 
L 555.497326 117.00718 
" style="fill:none;stroke:#ff7f0e;stroke-width:1.5;"/>
    <path clip-path="url(#p4c52fa4a76)" d="M 600.256684 137.317017 
L 615.176471 137.317017 
" style="fill:none;stroke:#ff7f0e;stroke-width:1.5;"/>
   </g>
   <g id="LineCollection_3">
    <path clip-path="url(#p4c52fa4a76)" d="M 130.283422 322.096471 
L 130.283422 274.298588 
" style="fill:none;stroke:#ff7f0e;stroke-width:1.5;"/>
    <path clip-path="url(#p4c52fa4a76)" d="M 189.962567 283.180023 
L 189.962567 276.858665 
" style="fill:none;stroke:#ff7f0e;stroke-width:1.5;"/>
    <path clip-path="url(#p4c52fa4a76)" d="M 249.641711 337.583881 
L 249.641711 282.657339 
" style="fill:none;stroke:#ff7f0e;stroke-width:1.5;"/>
    <path clip-path="url(#p4c52fa4a76)" d="M 309.320856 335.849014 
L 309.320856 287.799501 
" style="fill:none;stroke:#ff7f0e;stroke-width:1.5;"/>
    <path clip-path="url(#p4c52fa4a76)" d="M 369 338.983242 
L 369 304.414074 
" style="fill:none;stroke:#ff7f0e;stroke-width:1.5;"/>
    <path clip-path="url(#p4c52fa4a76)" d="M 428.679144 333.072169 
L 428.679144 287.051948 
" style="fill:none;stroke:#ff7f0e;stroke-width:1.5;"/>
    <path clip-path="url(#p4c52fa4a76)" d="M 488.358289 295.134932 
L 488.358289 281.980936 
" style="fill:none;stroke:#ff7f0e;stroke-width:1.5;"/>
    <path clip-path="url(#p4c52fa4a76)" d="M 548.037433 117.00718 
L 548.037433 81.970631 
" style="fill:none;stroke:#ff7f0e;stroke-width:1.5;"/>
    <path clip-path="url(#p4c52fa4a76)" d="M 607.716578 137.317017 
L 607.716578 111.534834 
" style="fill:none;stroke:#ff7f0e;stroke-width:1.5;"/>
   </g>
   <g id="line2d_16">
    <path clip-path="url(#p4c52fa4a76)" d="M 130.283422 315.684954 
L 189.962567 278.897796 
L 249.641711 308.870396 
L 309.320856 308.613853 
L 369 324.666424 
L 428.679144 313.928284 
L 488.358289 291.125536 
L 548.037433 102.404975 
L 607.716578 119.394978 
" style="fill:none;stroke:#1f77b4;stroke-linecap:square;stroke-width:1.5;"/>
    <defs>
     <path d="M 0 3 
C 0.795609 3 1.55874 2.683901 2.12132 2.12132 
C 2.683901 1.55874 3 0.795609 3 0 
C 3 -0.795609 2.683901 -1.55874 2.12132 -2.12132 
C 1.55874 -2.683901 0.795609 -3 0 -3 
C -0.795609 -3 -1.55874 -2.683901 -2.12132 -2.12132 
C -2.683901 -1.55874 -3 -0.795609 -3 0 
C -3 0.795609 -2.683901 1.55874 -2.12132 2.12132 
C -1.55874 2.683901 -0.795609 3 0 3 
z
" id="m5867bf17f7" style="stroke:#1f77b4;"/>
    </defs>
    <g clip-path="url(#p4c52fa4a76)">
     <use style="fill:#1f77b4;stroke:#1f77b4;" x="130.283422" xlink:href="#m5867bf17f7" y="315.684954"/>
     <use style="fill:#1f77b4;stroke:#1f77b4;" x="189.962567" xlink:href="#m5867bf17f7" y="278.897796"/>
     <use style="fill:#1f77b4;stroke:#1f77b4;" x="249.641711" xlink:href="#m5867bf17f7" y="308.870396"/>
     <use style="fill:#1f77b4;stroke:#1f77b4;" x="309.320856" xlink:href="#m5867bf17f7" y="308.613853"/>
     <use style="fill:#1f77b4;stroke:#1f77b4;" x="369" xlink:href="#m5867bf17f7" y="324.666424"/>
     <use style="fill:#1f77b4;stroke:#1f77b4;" x="428.679144" xlink:href="#m5867bf17f7" y="313.928284"/>
     <use style="fill:#1f77b4;stroke:#1f77b4;" x="488.358289" xlink:href="#m5867bf17f7" y="291.125536"/>
     <use style="fill:#1f77b4;stroke:#1f77b4;" x="548.037433" xlink:href="#m5867bf17f7" y="102.404975"/>
     <use style="fill:#1f77b4;stroke:#1f77b4;" x="607.716578" xlink:href="#m5867bf17f7" y="119.394978"/>
    </g>
   </g>
   <g id="patch_3">
    <path d="M 90 504 
L 90 69.12 
" style="fill:none;stroke:#000000;stroke-linecap:square;stroke-linejoin:miter;stroke-width:0.8;"/>
   </g>
   <g id="patch_4">
    <path d="M 648 504 
L 648 69.12 
" style="fill:none;stroke:#000000;stroke-linecap:square;stroke-linejoin:miter;stroke-width:0.8;"/>
   </g>
   <g id="patch_5">
    <path d="M 90 504 
L 648 504 
" style="fill:none;stroke:#000000;stroke-linecap:square;stroke-linejoin:miter;stroke-width:0.8;"/>
   </g>
   <g id="patch_6">
    <path d="M 90 69.12 
L 648 69.12 
" style="fill:none;stroke:#000000;stroke-linecap:square;stroke-linejoin:miter;stroke-width:0.8;"/>
   </g>
  </g>
 </g>
 <defs>
  <clipPath id="p4c52fa4a76">
   <rect height="434.88" width="558" x="90" y="69.12"/>
  </clipPath>
 </defs>
</svg>
